<svg xmlns="http://www.w3.org/2000/svg" width="242" height="332.959" viewBox="0 0 242 332.959">
  <g id="cncm_how_we_started_" data-name="cncm ( how we started)" transform="translate(34.087)">
    <g id="Group_51123" data-name="Group 51123" transform="translate(-36 241.879)">
      <g id="Group_66" data-name="Group 66" transform="translate(0.266 52.69)">
        <g id="Group_22" data-name="Group 22" transform="translate(9.106)">
          <g id="Group_5" data-name="Group 5">
            <path id="Path_9" data-name="Path 9" d="M318.291,431.506a8.292,8.292,0,0,1-2.519-.383,8.141,8.141,0,0,1-2.312-1.181v-3.061h1.506l.325,2.253a5.611,5.611,0,0,0,1.387.61,5.784,5.784,0,0,0,1.614.216,4.159,4.159,0,0,0,1.668-.3,2.4,2.4,0,0,0,1.048-.832,2.3,2.3,0,0,0,.049-2.4,2.63,2.63,0,0,0-1.038-.881,8.389,8.389,0,0,0-1.973-.664,9.41,9.41,0,0,1-2.494-.92,4.275,4.275,0,0,1-1.545-1.4,3.412,3.412,0,0,1-.526-1.884,3.519,3.519,0,0,1,.595-2.007,4.081,4.081,0,0,1,1.658-1.4,5.657,5.657,0,0,1,2.48-.512,7.189,7.189,0,0,1,2.661.457,6.557,6.557,0,0,1,1.9,1.107v2.863h-1.506l-.325-2.047a3.827,3.827,0,0,0-1.1-.59,4.895,4.895,0,0,0-1.633-.236,3.448,3.448,0,0,0-1.456.29,2.346,2.346,0,0,0-.984.812,2.134,2.134,0,0,0-.354,1.23,1.854,1.854,0,0,0,.32,1.083,2.607,2.607,0,0,0,1.043.812,10.427,10.427,0,0,0,1.934.654,7.6,7.6,0,0,1,3.429,1.658,3.572,3.572,0,0,1,1.166,2.711,3.49,3.49,0,0,1-.62,2.042A4.105,4.105,0,0,1,320.943,431,6.472,6.472,0,0,1,318.291,431.506Z" transform="translate(-313.167 -416.473)" fill="#fff"/>
            <path id="Path_10" data-name="Path 10" d="M318.084,431.592a8.592,8.592,0,0,1-2.608-.4,8.443,8.443,0,0,1-2.4-1.223l-.121-.087v-3.5h2.053l.34,2.367a5.375,5.375,0,0,0,1.2.509,5.514,5.514,0,0,0,1.532.2,3.885,3.885,0,0,0,1.55-.275,2.12,2.12,0,0,0,.924-.729,2,2,0,0,0,.043-2.079,2.355,2.355,0,0,0-.926-.778,8.135,8.135,0,0,0-1.9-.637,9.771,9.771,0,0,1-2.573-.951,4.6,4.6,0,0,1-1.648-1.495,3.72,3.72,0,0,1-.572-2.042,3.821,3.821,0,0,1,.645-2.171,4.388,4.388,0,0,1,1.775-1.5,5.97,5.97,0,0,1,2.606-.54,7.518,7.518,0,0,1,2.769.478,6.883,6.883,0,0,1,1.989,1.158l.1.087v3.29h-2.049l-.345-2.178a3.678,3.678,0,0,0-.93-.476,4.625,4.625,0,0,0-1.534-.219,3.174,3.174,0,0,0-1.334.263,2.042,2.042,0,0,0-.864.71,1.835,1.835,0,0,0-.3,1.066,1.555,1.555,0,0,0,.268.916,2.35,2.35,0,0,0,.93.714,10.129,10.129,0,0,0,1.877.634,7.925,7.925,0,0,1,3.559,1.729,3.873,3.873,0,0,1,1.258,2.924,3.792,3.792,0,0,1-.672,2.21,4.408,4.408,0,0,1-1.868,1.493A6.8,6.8,0,0,1,318.084,431.592Zm-4.538-2.009a7.807,7.807,0,0,0,2.108,1.053,8.017,8.017,0,0,0,2.43.37,6.208,6.208,0,0,0,2.533-.476,3.83,3.83,0,0,0,1.626-1.292,3.215,3.215,0,0,0,.567-1.874,3.264,3.264,0,0,0-1.074-2.5,7.371,7.371,0,0,0-3.3-1.587,10.722,10.722,0,0,1-1.99-.674,2.9,2.9,0,0,1-1.157-.909,2.151,2.151,0,0,1-.372-1.249,2.428,2.428,0,0,1,.4-1.394,2.649,2.649,0,0,1,1.1-.914,3.756,3.756,0,0,1,1.58-.317,5.178,5.178,0,0,1,1.732.254,4.112,4.112,0,0,1,1.186.637l.089.071.3,1.911h.962v-2.434a6.454,6.454,0,0,0-1.719-.971,6.946,6.946,0,0,0-2.554-.437,5.4,5.4,0,0,0-2.353.482,3.8,3.8,0,0,0-1.542,1.3,3.244,3.244,0,0,0-.545,1.843,3.146,3.146,0,0,0,.48,1.727,4.02,4.02,0,0,0,1.443,1.3,9.149,9.149,0,0,0,2.417.89,8.721,8.721,0,0,1,2.042.69,2.918,2.918,0,0,1,1.15.985,2.588,2.588,0,0,1-.055,2.723,2.705,2.705,0,0,1-1.172.935,4.464,4.464,0,0,1-1.786.324,6.128,6.128,0,0,1-1.695-.227,5.937,5.937,0,0,1-1.459-.642l-.117-.072-.308-2.139h-.959Z" transform="translate(-312.96 -416.266)" fill="#fff"/>
          </g>
          <g id="Group_6" data-name="Group 6" transform="translate(11.928)">
            <path id="Path_11" data-name="Path 11" d="M339.764,431.506a5.66,5.66,0,0,1-2.489-.531,5.334,5.334,0,0,1-1.875-1.5,6.889,6.889,0,0,1-1.18-2.3,9.938,9.938,0,0,1-.409-2.932v-.206a9.951,9.951,0,0,1,.409-2.927,6.941,6.941,0,0,1,1.18-2.307,5.307,5.307,0,0,1,1.875-1.506,5.652,5.652,0,0,1,2.489-.531,5.909,5.909,0,0,1,2.578.531,5.108,5.108,0,0,1,1.864,1.506,6.807,6.807,0,0,1,1.136,2.307,10.545,10.545,0,0,1,.384,2.927v.206a10.531,10.531,0,0,1-.384,2.932,6.757,6.757,0,0,1-1.136,2.3,5.133,5.133,0,0,1-1.864,1.5A5.918,5.918,0,0,1,339.764,431.506Zm0-1.614a3.57,3.57,0,0,0,2.307-.708,4.078,4.078,0,0,0,1.294-1.983,9.6,9.6,0,0,0,.413-2.957v-.226a9.356,9.356,0,0,0-.418-2.937,4.126,4.126,0,0,0-1.3-1.977,3.539,3.539,0,0,0-2.293-.713,3.377,3.377,0,0,0-2.184.719,4.409,4.409,0,0,0-1.358,1.983,8.5,8.5,0,0,0-.462,2.927v.226a8.616,8.616,0,0,0,.462,2.947,4.374,4.374,0,0,0,1.358,1.987A3.394,3.394,0,0,0,339.764,429.892Z" transform="translate(-333.518 -416.473)" fill="#fff"/>
            <path id="Path_12" data-name="Path 12" d="M339.557,431.592a5.972,5.972,0,0,1-2.617-.56,5.64,5.64,0,0,1-1.976-1.582,7.23,7.23,0,0,1-1.231-2.394,10.282,10.282,0,0,1-.421-3.018v-.206a10.3,10.3,0,0,1,.421-3.014,7.246,7.246,0,0,1,1.231-2.4,5.613,5.613,0,0,1,1.976-1.588,5.972,5.972,0,0,1,2.617-.56,6.231,6.231,0,0,1,2.7.56,5.423,5.423,0,0,1,1.97,1.591,7.124,7.124,0,0,1,1.186,2.4,10.913,10.913,0,0,1,.4,3.009v.206a10.9,10.9,0,0,1-.4,3.014,7.1,7.1,0,0,1-1.187,2.4,5.456,5.456,0,0,1-1.969,1.585A6.232,6.232,0,0,1,339.557,431.592Zm0-14.74a5.4,5.4,0,0,0-2.362.5,5.029,5.029,0,0,0-1.772,1.424,6.666,6.666,0,0,0-1.131,2.211,9.7,9.7,0,0,0-.4,2.842v.206a9.7,9.7,0,0,0,.4,2.847,6.63,6.63,0,0,0,1.13,2.2,5.068,5.068,0,0,0,1.772,1.42,5.4,5.4,0,0,0,2.362.5,5.648,5.648,0,0,0,2.452-.5,4.864,4.864,0,0,0,1.76-1.416,6.5,6.5,0,0,0,1.087-2.2,10.316,10.316,0,0,0,.372-2.851v-.206a10.327,10.327,0,0,0-.372-2.847,6.552,6.552,0,0,0-1.087-2.209,4.84,4.84,0,0,0-1.76-1.421A5.649,5.649,0,0,0,339.557,416.852Zm0,13.126a3.692,3.692,0,0,1-2.367-.778,4.676,4.676,0,0,1-1.451-2.116,8.953,8.953,0,0,1-.48-3.047v-.226a8.825,8.825,0,0,1,.481-3.028,4.713,4.713,0,0,1,1.45-2.111,3.678,3.678,0,0,1,2.367-.782,3.837,3.837,0,0,1,2.476.778,4.435,4.435,0,0,1,1.4,2.114,9.7,9.7,0,0,1,.433,3.029v.226a9.932,9.932,0,0,1-.428,3.048,4.386,4.386,0,0,1-1.388,2.12A3.872,3.872,0,0,1,339.557,429.978Zm0-11.5a3.108,3.108,0,0,0-2,.654,4.144,4.144,0,0,0-1.266,1.855,8.253,8.253,0,0,0-.445,2.827v.226a8.374,8.374,0,0,0,.445,2.847,4.11,4.11,0,0,0,1.265,1.859,3.126,3.126,0,0,0,2,.649,3.3,3.3,0,0,0,2.124-.644,3.808,3.808,0,0,0,1.2-1.844,9.336,9.336,0,0,0,.4-2.867v-.226a9.127,9.127,0,0,0-.4-2.845,3.857,3.857,0,0,0-1.21-1.841A3.269,3.269,0,0,0,339.557,418.476Z" transform="translate(-333.311 -416.266)" fill="#fff"/>
          </g>
          <g id="Group_7" data-name="Group 7" transform="translate(26.365)">
            <path id="Path_13" data-name="Path 13" d="M364.928,431.506a6.431,6.431,0,0,1-3.6-.944,5.819,5.819,0,0,1-2.164-2.588,9.166,9.166,0,0,1-.723-3.729v-.206a8.832,8.832,0,0,1,.757-3.745,6.114,6.114,0,0,1,2.175-2.583,5.962,5.962,0,0,1,3.385-.944,7.17,7.17,0,0,1,2.539.432,6.1,6.1,0,0,1,1.909,1.1v3.089h-1.545l-.207-2.263a3.057,3.057,0,0,0-.723-.413,4.408,4.408,0,0,0-.906-.256,6.168,6.168,0,0,0-1.077-.089,3.878,3.878,0,0,0-2.381.723,4.446,4.446,0,0,0-1.476,1.993,7.933,7.933,0,0,0-.5,2.932v.226a7.913,7.913,0,0,0,.536,3.075,4.17,4.17,0,0,0,1.564,1.943,4.488,4.488,0,0,0,2.5.669,5.442,5.442,0,0,0,1.348-.168,3.952,3.952,0,0,0,1.092-.433l.216-2h1.515v3.109a6.721,6.721,0,0,1-1.928.782A9.5,9.5,0,0,1,364.928,431.506Z" transform="translate(-358.151 -416.473)" fill="#fff"/>
            <path id="Path_14" data-name="Path 14" d="M364.721,431.592a6.743,6.743,0,0,1-3.757-.992,6.144,6.144,0,0,1-2.272-2.715,9.5,9.5,0,0,1-.748-3.847v-.206a9.149,9.149,0,0,1,.785-3.868,6.429,6.429,0,0,1,2.278-2.7,6.276,6.276,0,0,1,3.548-.993,7.475,7.475,0,0,1,2.641.451,6.437,6.437,0,0,1,2,1.157l.1.087v3.515h-2.106l-.219-2.4a2.844,2.844,0,0,0-.555-.3,4.084,4.084,0,0,0-.845-.239,5.851,5.851,0,0,0-1.026-.084,3.61,3.61,0,0,0-2.206.666,4.175,4.175,0,0,0-1.378,1.864,7.687,7.687,0,0,0-.481,2.825v.226a7.652,7.652,0,0,0,.513,2.961,3.894,3.894,0,0,0,1.454,1.812,4.224,4.224,0,0,0,2.344.622,5.188,5.188,0,0,0,1.276-.158,3.968,3.968,0,0,0,.889-.329l.229-2.111h2.071V430.4l-.138.086a7.029,7.029,0,0,1-2.012.818A9.842,9.842,0,0,1,364.721,431.592Zm-.167-14.74a5.7,5.7,0,0,0-3.222.895,5.857,5.857,0,0,0-2.071,2.462,8.575,8.575,0,0,0-.73,3.622v.206a8.931,8.931,0,0,0,.7,3.612,5.572,5.572,0,0,0,2.058,2.461,6.175,6.175,0,0,0,3.435.9,9.224,9.224,0,0,0,2.241-.272,6.623,6.623,0,0,0,1.707-.664v-2.65h-.959l-.2,1.879-.122.076a4.272,4.272,0,0,1-1.173.467,5.79,5.79,0,0,1-1.42.177,4.8,4.8,0,0,1-2.664-.717,4.484,4.484,0,0,1-1.674-2.075,8.241,8.241,0,0,1-.559-3.189v-.226a8.267,8.267,0,0,1,.522-3.04,4.747,4.747,0,0,1,1.574-2.12,4.18,4.18,0,0,1,2.555-.781,6.51,6.51,0,0,1,1.129.093,4.786,4.786,0,0,1,.965.273,3.365,3.365,0,0,1,.792.453l.1.078.194,2.123h.985v-2.661a5.969,5.969,0,0,0-1.72-.963A6.9,6.9,0,0,0,364.554,416.852Z" transform="translate(-357.944 -416.266)" fill="#fff"/>
          </g>
          <g id="Group_8" data-name="Group 8" transform="translate(39.571 0.206)">
            <path id="Path_15" data-name="Path 15" d="M380.977,431.445v-1.24l1.6-.276V418.644l-1.6-.276v-1.25h5.146v1.25l-1.6.276v11.286l1.6.276v1.24Z" transform="translate(-380.684 -416.825)" fill="#fff"/>
            <path id="Path_16" data-name="Path 16" d="M386.209,431.531h-5.732v-1.78l1.6-.275V418.683l-1.6-.276v-1.789h5.732v1.789l-1.6.276v10.792l1.6.275Zm-5.146-.586h4.56v-.7l-1.6-.276V418.19l1.6-.276v-.71h-4.56v.71l1.6.276v11.779l-1.6.276Z" transform="translate(-380.477 -416.618)" fill="#fff"/>
          </g>
          <g id="Group_9" data-name="Group 9" transform="translate(46.816 0.206)">
            <path id="Path_17" data-name="Path 17" d="M393.337,431.445v-1.24l1.6-.276V418.644l-1.6-.276v-1.25h10.607v3.444H402.39l-.217-1.948h-5.294v4.664h5.284V424.8h-5.284v5.186h5.608l.217-1.978h1.545v3.434Z" transform="translate(-393.044 -416.825)" fill="#fff"/>
            <path id="Path_18" data-name="Path 18" d="M404.336,431.531h-11.5v-1.78l1.6-.275V418.683l-1.6-.276v-1.789H404.03v4.03h-2.11L401.7,418.7h-4.739v4.078h5.284v2.111h-5.284v4.6h5.053l.217-1.978h2.1Zm-10.912-.586H403.75V428.1h-.989l-.217,1.978h-6.164V424.3h5.284v-.939h-5.284v-5.25h5.849l.217,1.948h1V417.2H393.423v.71l1.6.276v11.779l-1.6.276Z" transform="translate(-392.837 -416.618)" fill="#fff"/>
          </g>
          <g id="Group_10" data-name="Group 10" transform="translate(60.514 0.206)">
            <path id="Path_19" data-name="Path 19" d="M420.1,431.445v-1.24l1.6-.276V418.584h-3.248l-.285,1.987H416.71v-3.454h11.906v3.454H427.18l-.3-1.987h-3.248v11.345l1.6.276v1.24Z" transform="translate(-416.417 -416.825)" fill="#fff"/>
            <path id="Path_20" data-name="Path 20" d="M425.327,431.531H419.6v-1.78l1.6-.275V418.671h-2.7l-.285,1.987h-2v-4.04H428.7v4.04H426.72l-.3-1.987h-2.7v10.805l1.6.275Zm-5.146-.586h4.56v-.7l-1.6-.276V418.084h3.794l.3,1.987h.89V417.2H416.8v2.868h.91l.285-1.987h3.794v11.884l-1.6.276Z" transform="translate(-416.21 -416.618)" fill="#fff"/>
          </g>
          <g id="Group_11" data-name="Group 11" transform="translate(74.706 0.206)">
            <path id="Path_21" data-name="Path 21" d="M444.908,431.445v-1.24l1.6-.276v-3.7l-4.409-7.675-1.18-.187v-1.25h4.94v1.25l-1.633.187,3.041,5.629.206.383.01-.019.2-.364,3.188-5.629-1.693-.187v-1.25h4.842v1.25l-1.25.187-4.33,7.528v3.847l1.6.276v1.24Z" transform="translate(-440.63 -416.825)" fill="#fff"/>
            <path id="Path_22" data-name="Path 22" d="M450.13,431.531h-5.722v-1.78l1.6-.275V426.1l-4.3-7.486-1.289-.2v-1.793h5.526v1.8l-1.463.167,2.785,5.155,2.92-5.154-1.512-.167v-1.805h5.428v1.8l-1.359.2-4.22,7.337v3.522l1.6.275Zm-5.136-.586h4.55v-.7l-1.6-.276V425.8l4.439-7.718,1.14-.171v-.7h-4.255v.694l1.874.207-3.859,6.853-.474-.843-3.246-6.009,1.8-.207v-.7h-4.354v.706l1.072.17,4.517,7.864v4.025l-1.6.276Z" transform="translate(-440.423 -416.618)" fill="#fff"/>
          </g>
          <g id="Group_12" data-name="Group 12" transform="translate(95.147)">
            <path id="Path_23" data-name="Path 23" d="M481.753,431.506a5.665,5.665,0,0,1-2.49-.531,5.326,5.326,0,0,1-1.874-1.5,6.891,6.891,0,0,1-1.181-2.3,9.932,9.932,0,0,1-.408-2.932v-.206a9.945,9.945,0,0,1,.408-2.927,6.943,6.943,0,0,1,1.181-2.307,5.3,5.3,0,0,1,1.874-1.506,5.656,5.656,0,0,1,2.49-.531,5.9,5.9,0,0,1,2.578.531A5.1,5.1,0,0,1,486.2,418.8a6.827,6.827,0,0,1,1.137,2.307,10.59,10.59,0,0,1,.383,2.927v.206a10.576,10.576,0,0,1-.383,2.932,6.776,6.776,0,0,1-1.137,2.3,5.128,5.128,0,0,1-1.865,1.5A5.914,5.914,0,0,1,481.753,431.506Zm0-1.614a3.571,3.571,0,0,0,2.308-.708,4.083,4.083,0,0,0,1.294-1.983,9.6,9.6,0,0,0,.413-2.957v-.226a9.387,9.387,0,0,0-.418-2.937,4.131,4.131,0,0,0-1.3-1.977,3.54,3.54,0,0,0-2.293-.713,3.375,3.375,0,0,0-2.184.719,4.4,4.4,0,0,0-1.358,1.983,8.5,8.5,0,0,0-.462,2.927v.226a8.618,8.618,0,0,0,.462,2.947,4.369,4.369,0,0,0,1.358,1.987A3.393,3.393,0,0,0,481.753,429.892Z" transform="translate(-475.507 -416.473)" fill="#fff"/>
            <path id="Path_24" data-name="Path 24" d="M481.546,431.592a5.972,5.972,0,0,1-2.617-.56,5.639,5.639,0,0,1-1.976-1.582,7.217,7.217,0,0,1-1.231-2.394,10.261,10.261,0,0,1-.422-3.019v-.206a10.293,10.293,0,0,1,.421-3.014,7.245,7.245,0,0,1,1.232-2.4,5.611,5.611,0,0,1,1.976-1.588,5.971,5.971,0,0,1,2.617-.56,6.229,6.229,0,0,1,2.7.56,5.419,5.419,0,0,1,1.97,1.591,7.147,7.147,0,0,1,1.186,2.4,10.925,10.925,0,0,1,.4,3.009v.206a10.911,10.911,0,0,1-.4,3.014,7.12,7.12,0,0,1-1.186,2.4,5.463,5.463,0,0,1-1.97,1.585A6.23,6.23,0,0,1,481.546,431.592Zm0-14.74a5.4,5.4,0,0,0-2.363.5,5.034,5.034,0,0,0-1.772,1.424,6.667,6.667,0,0,0-1.13,2.211,9.682,9.682,0,0,0-.4,2.842v.206a9.691,9.691,0,0,0,.4,2.847,6.643,6.643,0,0,0,1.13,2.2,5.069,5.069,0,0,0,1.772,1.42,5.4,5.4,0,0,0,2.363.5,5.651,5.651,0,0,0,2.452-.5,4.87,4.87,0,0,0,1.76-1.416,6.528,6.528,0,0,0,1.086-2.2,10.333,10.333,0,0,0,.372-2.851v-.206a10.35,10.35,0,0,0-.372-2.847,6.575,6.575,0,0,0-1.087-2.208,4.844,4.844,0,0,0-1.76-1.421A5.653,5.653,0,0,0,481.546,416.852Zm0,13.126a3.691,3.691,0,0,1-2.367-.778,4.675,4.675,0,0,1-1.451-2.116,8.938,8.938,0,0,1-.48-3.047v-.226a8.826,8.826,0,0,1,.48-3.028,4.716,4.716,0,0,1,1.451-2.111,3.676,3.676,0,0,1,2.367-.782,3.841,3.841,0,0,1,2.477.778,4.435,4.435,0,0,1,1.4,2.114,9.694,9.694,0,0,1,.433,3.029v.226a9.9,9.9,0,0,1-.428,3.048,4.4,4.4,0,0,1-1.388,2.12A3.873,3.873,0,0,1,481.546,429.978Zm0-11.5a3.067,3.067,0,0,0-2,.654,4.14,4.14,0,0,0-1.267,1.855,8.24,8.24,0,0,0-.445,2.827v.226a8.361,8.361,0,0,0,.445,2.847,4.107,4.107,0,0,0,1.265,1.859,3.122,3.122,0,0,0,2,.65,3.3,3.3,0,0,0,2.124-.644,3.814,3.814,0,0,0,1.2-1.844,9.334,9.334,0,0,0,.4-2.867v-.226a9.144,9.144,0,0,0-.4-2.846,3.868,3.868,0,0,0-1.209-1.84A3.272,3.272,0,0,0,481.546,418.476Z" transform="translate(-475.3 -416.266)" fill="#fff"/>
          </g>
          <g id="Group_13" data-name="Group 13" transform="translate(109.052 0.206)">
            <path id="Path_25" data-name="Path 25" d="M499.525,431.445v-1.24l1.6-.276V418.644l-1.6-.276v-1.25H510.3v3.444h-1.555l-.216-1.938h-5.461v4.959h5.245v1.526h-5.245v4.821l1.6.276v1.24Z" transform="translate(-499.232 -416.825)" fill="#fff"/>
            <path id="Path_26" data-name="Path 26" d="M504.758,431.531h-5.733v-1.78l1.6-.275V418.683l-1.6-.276v-1.789h11.361v4.03h-2.11l-.217-1.938h-4.906v4.373H508.4v2.112h-5.245v4.282l1.6.275Zm-5.146-.586h4.56v-.7l-1.6-.276v-5.36h5.245v-.939h-5.245v-5.545h6.016l.216,1.938h1V417.2H499.611v.71l1.6.276v11.779l-1.6.276Z" transform="translate(-499.025 -416.618)" fill="#fff"/>
          </g>
          <g id="Group_14" data-name="Group 14" transform="translate(127.427 0.206)">
            <path id="Path_27" data-name="Path 27" d="M530.877,431.445v-1.24l1.6-.276V418.644l-1.6-.276v-1.25h10.607v3.444h-1.555l-.216-1.948h-5.294v4.664H539.7V424.8h-5.284v5.186h5.609l.216-1.978h1.545v3.434Z" transform="translate(-530.584 -416.825)" fill="#fff"/>
            <path id="Path_28" data-name="Path 28" d="M541.875,431.531h-11.5v-1.78l1.6-.275V418.683l-1.6-.276v-1.789H541.57v4.03h-2.11l-.216-1.948h-4.739v4.078h5.284v2.111h-5.284v4.6h5.053l.216-1.978h2.1Zm-10.912-.586h10.326V428.1H540.3l-.217,1.978h-6.165V424.3H539.2v-.939h-5.284v-5.25h5.849l.217,1.948h1V417.2H530.963v.71l1.6.276v11.779l-1.6.276Z" transform="translate(-530.377 -416.618)" fill="#fff"/>
          </g>
          <g id="Group_15" data-name="Group 15" transform="translate(141.126 0.206)">
            <path id="Path_29" data-name="Path 29" d="M557.635,431.445v-1.24l1.6-.276V418.584h-3.247l-.286,1.987H554.25v-3.454h11.906v3.454h-1.436l-.3-1.987h-3.247v11.345l1.6.276v1.24Z" transform="translate(-553.957 -416.825)" fill="#fff"/>
            <path id="Path_30" data-name="Path 30" d="M562.867,431.531h-5.733v-1.78l1.6-.275V418.671h-2.7l-.285,1.987h-2v-4.04h12.492v4.04H564.26l-.3-1.987h-2.7v10.805l1.6.275Zm-5.147-.586h4.56v-.7l-1.6-.276V418.084h3.793l.3,1.987h.89V417.2h-11.32v2.868h.909l.285-1.987h3.794v11.884l-1.6.276Z" transform="translate(-553.75 -416.618)" fill="#fff"/>
          </g>
          <g id="Group_16" data-name="Group 16" transform="translate(155.317 0.206)">
            <path id="Path_31" data-name="Path 31" d="M578.463,431.445v-1.24l1.6-.276V418.644l-1.6-.276v-1.25h5.145v1.25l-1.6.276v4.949h6.848v-4.949l-1.6-.276v-1.25H592.4v1.25l-1.6.276v11.286l1.6.276v1.24H587.25v-1.24l1.6-.276v-4.811H582v4.811l1.6.276v1.24Z" transform="translate(-578.17 -416.825)" fill="#fff"/>
            <path id="Path_32" data-name="Path 32" d="M592.482,431.531H586.75v-1.78l1.6-.275V425.2h-6.262v4.271l1.6.275v1.78h-5.731v-1.78l1.6-.275V418.683l-1.6-.276v-1.789h5.731v1.789l-1.6.276v4.409h6.262v-4.409l-1.6-.276v-1.789h5.732v1.789l-1.6.276v10.792l1.6.275Zm-5.146-.586h4.56v-.7l-1.6-.276V418.19l1.6-.276v-.71h-4.56v.71l1.6.276v5.489H581.5V418.19l1.6-.276v-.71h-4.559v.71l1.6.276v11.779l-1.6.276v.7h4.559v-.7l-1.6-.276v-5.35h7.435v5.35l-1.6.276Z" transform="translate(-577.963 -416.618)" fill="#fff"/>
          </g>
          <g id="Group_17" data-name="Group 17" transform="translate(171.347 0.206)">
            <path id="Path_33" data-name="Path 33" d="M605.814,431.445v-1.24l1.6-.276V418.644l-1.6-.276v-1.25h5.147v1.25l-1.6.276v11.286l1.6.276v1.24Z" transform="translate(-605.521 -416.825)" fill="#fff"/>
            <path id="Path_34" data-name="Path 34" d="M611.047,431.531h-5.733v-1.78l1.6-.275V418.683l-1.6-.276v-1.789h5.733v1.789l-1.6.276v10.792l1.6.275Zm-5.147-.586h4.561v-.7l-1.6-.276V418.19l1.6-.276v-.71H605.9v.71l1.6.276v11.779l-1.6.276Z" transform="translate(-605.314 -416.618)" fill="#fff"/>
          </g>
          <g id="Group_18" data-name="Group 18" transform="translate(178.484)">
            <path id="Path_35" data-name="Path 35" d="M623.942,431.506a5.66,5.66,0,0,1-2.489-.531,5.337,5.337,0,0,1-1.874-1.5,6.868,6.868,0,0,1-1.18-2.3,9.932,9.932,0,0,1-.409-2.932v-.206a9.945,9.945,0,0,1,.409-2.927,6.919,6.919,0,0,1,1.18-2.307,5.31,5.31,0,0,1,1.874-1.506,5.652,5.652,0,0,1,2.489-.531,5.908,5.908,0,0,1,2.578.531,5.1,5.1,0,0,1,1.865,1.506,6.82,6.82,0,0,1,1.137,2.307,10.551,10.551,0,0,1,.383,2.927v.206a10.537,10.537,0,0,1-.383,2.932,6.769,6.769,0,0,1-1.137,2.3,5.123,5.123,0,0,1-1.865,1.5A5.917,5.917,0,0,1,623.942,431.506Zm0-1.614a3.57,3.57,0,0,0,2.308-.708,4.076,4.076,0,0,0,1.294-1.983,9.585,9.585,0,0,0,.413-2.957v-.226a9.364,9.364,0,0,0-.418-2.937,4.127,4.127,0,0,0-1.3-1.977,3.541,3.541,0,0,0-2.294-.713,3.375,3.375,0,0,0-2.184.719,4.4,4.4,0,0,0-1.357,1.983,8.472,8.472,0,0,0-.463,2.927v.226a8.59,8.59,0,0,0,.463,2.947,4.365,4.365,0,0,0,1.357,1.987A3.393,3.393,0,0,0,623.942,429.892Z" transform="translate(-617.697 -416.473)" fill="#fff"/>
            <path id="Path_36" data-name="Path 36" d="M623.736,431.592a5.964,5.964,0,0,1-2.616-.56,5.633,5.633,0,0,1-1.976-1.582,7.2,7.2,0,0,1-1.232-2.394,10.255,10.255,0,0,1-.421-3.018v-.206a10.285,10.285,0,0,1,.421-3.014,7.245,7.245,0,0,1,1.232-2.4,5.609,5.609,0,0,1,1.977-1.588,5.964,5.964,0,0,1,2.616-.56,6.227,6.227,0,0,1,2.7.56,5.4,5.4,0,0,1,1.97,1.591,7.119,7.119,0,0,1,1.186,2.4,10.9,10.9,0,0,1,.395,3.009v.206a10.883,10.883,0,0,1-.395,3.014,7.082,7.082,0,0,1-1.187,2.4,5.444,5.444,0,0,1-1.969,1.585A6.228,6.228,0,0,1,623.736,431.592Zm0-14.74a5.4,5.4,0,0,0-2.362.5,5.044,5.044,0,0,0-1.772,1.424,6.666,6.666,0,0,0-1.13,2.211,9.7,9.7,0,0,0-.4,2.842v.206a9.715,9.715,0,0,0,.395,2.847,6.632,6.632,0,0,0,1.13,2.2,5.075,5.075,0,0,0,1.772,1.42,5.4,5.4,0,0,0,2.362.5,5.646,5.646,0,0,0,2.452-.5,4.851,4.851,0,0,0,1.76-1.416,6.49,6.49,0,0,0,1.087-2.2,10.326,10.326,0,0,0,.372-2.851v-.206a10.337,10.337,0,0,0-.372-2.847,6.54,6.54,0,0,0-1.087-2.209,4.832,4.832,0,0,0-1.76-1.421A5.648,5.648,0,0,0,623.736,416.852Zm0,13.126a3.692,3.692,0,0,1-2.367-.778,4.67,4.67,0,0,1-1.45-2.117,8.92,8.92,0,0,1-.481-3.047v-.226a8.807,8.807,0,0,1,.481-3.028,4.711,4.711,0,0,1,1.449-2.111,3.677,3.677,0,0,1,2.367-.782,3.84,3.84,0,0,1,2.477.778,4.436,4.436,0,0,1,1.4,2.114,9.7,9.7,0,0,1,.432,3.029v.226a9.925,9.925,0,0,1-.427,3.048,4.382,4.382,0,0,1-1.389,2.12A3.87,3.87,0,0,1,623.736,429.978Zm0-11.5a3.106,3.106,0,0,0-2,.654,4.14,4.14,0,0,0-1.266,1.855,8.229,8.229,0,0,0-.445,2.827v.226a8.347,8.347,0,0,0,.445,2.847,4.11,4.11,0,0,0,1.265,1.859,3.126,3.126,0,0,0,2,.649,3.3,3.3,0,0,0,2.124-.644,3.8,3.8,0,0,0,1.2-1.844,9.314,9.314,0,0,0,.4-2.867v-.226a9.129,9.129,0,0,0-.4-2.845,3.863,3.863,0,0,0-1.21-1.841A3.271,3.271,0,0,0,623.736,418.476Z" transform="translate(-617.49 -416.266)" fill="#fff"/>
          </g>
          <g id="Group_19" data-name="Group 19" transform="translate(192.389 0.206)">
            <path id="Path_37" data-name="Path 37" d="M641.716,431.445v-1.24l1.6-.276V418.644l-1.6-.276v-1.25H648.3a5.846,5.846,0,0,1,2.617.536,3.858,3.858,0,0,1,1.653,1.5,4.757,4.757,0,0,1,0,4.517,3.83,3.83,0,0,1-1.653,1.5,5.9,5.9,0,0,1-2.617.531h-3.04v4.231l1.6.276v1.24Zm3.542-7.262h3.04a2.826,2.826,0,0,0,2.18-.782,2.8,2.8,0,0,0,.723-1.973,2.85,2.85,0,0,0-.723-1.988,2.8,2.8,0,0,0-2.18-.8h-3.04Z" transform="translate(-641.423 -416.825)" fill="#fff"/>
            <path id="Path_38" data-name="Path 38" d="M646.948,431.531h-5.732v-1.78l1.6-.275V418.683l-1.6-.276v-1.789h6.876a6.155,6.155,0,0,1,2.748.567,4.161,4.161,0,0,1,1.775,1.614,5.049,5.049,0,0,1,0,4.815,4.144,4.144,0,0,1-1.776,1.609,6.213,6.213,0,0,1-2.747.561h-2.747v3.691l1.6.275Zm-5.146-.586h4.56v-.7l-1.6-.276V425.2h3.333a5.624,5.624,0,0,0,2.488-.5,3.557,3.557,0,0,0,1.532-1.381,4.469,4.469,0,0,0,0-4.218,3.587,3.587,0,0,0-1.531-1.388,5.585,5.585,0,0,0-2.487-.506H641.8v.71l1.6.276v11.779l-1.6.276Zm6.29-6.676h-3.333v-6.126h3.333a3.086,3.086,0,0,1,2.4.893,3.148,3.148,0,0,1,.8,2.185,2.9,2.9,0,0,1-3.2,3.048Zm-2.747-.586h2.747a2.564,2.564,0,0,0,1.964-.689,2.49,2.49,0,0,0,.645-1.774,2.338,2.338,0,0,0-2.61-2.492h-2.747Z" transform="translate(-641.216 -416.618)" fill="#fff"/>
          </g>
          <g id="Group_20" data-name="Group 20" transform="translate(205.655 0.206)">
            <path id="Path_39" data-name="Path 39" d="M664.35,431.445v-1.24l1.6-.276V418.644l-1.6-.276v-1.25H669.5v1.25l-1.6.276v11.286l1.6.276v1.24Z" transform="translate(-664.057 -416.825)" fill="#fff"/>
            <path id="Path_40" data-name="Path 40" d="M669.583,431.531H663.85v-1.78l1.6-.275V418.683l-1.6-.276v-1.789h5.733v1.789l-1.6.276v10.792l1.6.275Zm-5.147-.586H669v-.7l-1.6-.276V418.19l1.6-.276v-.71h-4.56v.71l1.6.276v11.779l-1.6.276Z" transform="translate(-663.85 -416.618)" fill="#fff"/>
          </g>
          <g id="Group_21" data-name="Group 21" transform="translate(212.791 0.206)">
            <path id="Path_41" data-name="Path 41" d="M676.525,431.445v-1.24l1.063-.148,5.009-12.939h1.663l4.92,12.939,1.053.148v1.24H686.12v-1.24l1.082-.187-.945-2.637h-5.736l-.974,2.637,1.082.187v1.24Zm4.6-5.688h4.546l-2.106-5.825-.118-.325h-.059l-.118.325Z" transform="translate(-676.232 -416.825)" fill="#fff"/>
            <path id="Path_42" data-name="Path 42" d="M690.318,431.531h-4.7v-1.78l.982-.17-.758-2.114h-5.326l-.782,2.115.979.169v1.78h-4.689v-1.788l1.145-.159,5.019-12.966h2.065l4.931,12.966,1.133.16Zm-4.112-.586h3.526v-.692l-.972-.137L683.85,417.2h-1.26l-5,12.913-.981.136v.692h3.517v-.7l-1.185-.2,1.166-3.159h6.146l1.132,3.16-1.182.2Zm-.328-5.1h-5.384l2.478-6.736h.471Zm-4.544-.586h3.708l-1.837-5.081Z" transform="translate(-676.025 -416.618)" fill="#fff"/>
          </g>
        </g>
        <text id="Representing_Creative_Souls" data-name="Representing Creative Souls" transform="translate(1.647 34.39)" fill="#fff" font-size="15" font-family="Roboto-Regular, Roboto" letter-spacing="0.16em"><tspan x="0" y="0">representing creative souls</tspan></text>
      </g>
      <g id="Group_397" data-name="Group 397" transform="translate(40.266)">
        <g id="Group_1" data-name="Group 1">
          <path id="Path_1" data-name="Path 1" d="M213.269,454.4a16.418,16.418,0,0,1-9.183-2.411,14.87,14.87,0,0,1-5.528-6.609,23.429,23.429,0,0,1-1.847-9.522v-.527a22.529,22.529,0,0,1,1.935-9.561,15.621,15.621,0,0,1,5.552-6.6,15.227,15.227,0,0,1,8.644-2.411,18.292,18.292,0,0,1,6.482,1.1,15.578,15.578,0,0,1,4.874,2.815v7.888h-3.945l-.527-5.778a7.814,7.814,0,0,0-1.847-1.055,11.316,11.316,0,0,0-2.312-.654,15.783,15.783,0,0,0-2.751-.226,9.909,9.909,0,0,0-6.08,1.847,11.349,11.349,0,0,0-3.768,5.088,20.258,20.258,0,0,0-1.281,7.487v.578a20.2,20.2,0,0,0,1.368,7.851,10.654,10.654,0,0,0,4,4.963,11.459,11.459,0,0,0,6.395,1.709,13.89,13.89,0,0,0,3.441-.428,10.1,10.1,0,0,0,2.79-1.1l.552-5.1h3.87v7.939a17.2,17.2,0,0,1-4.925,2A24.245,24.245,0,0,1,213.269,454.4Z" transform="translate(-195.963 -416.018)" fill="#fff"/>
          <path id="Path_2" data-name="Path 2" d="M213.517,455.4a17.213,17.213,0,0,1-9.593-2.534,15.665,15.665,0,0,1-5.8-6.934,24.253,24.253,0,0,1-1.911-9.823v-.527a23.389,23.389,0,0,1,2-9.876,16.422,16.422,0,0,1,5.817-6.9,16.022,16.022,0,0,1,9.059-2.537,19.091,19.091,0,0,1,6.745,1.152,16.41,16.41,0,0,1,5.106,2.954l.253.223v8.975h-5.376l-.56-6.125a7.192,7.192,0,0,0-1.416-.763,10.452,10.452,0,0,0-2.158-.609,14.951,14.951,0,0,0-2.62-.216,9.222,9.222,0,0,0-5.635,1.7,10.674,10.674,0,0,0-3.52,4.76,19.661,19.661,0,0,0-1.227,7.213v.578a19.566,19.566,0,0,0,1.31,7.561,9.962,9.962,0,0,0,3.713,4.626,10.789,10.789,0,0,0,5.988,1.588,13.239,13.239,0,0,0,3.257-.4,10.1,10.1,0,0,0,2.27-.84l.585-5.389h5.289v9.1l-.353.22a17.963,17.963,0,0,1-5.138,2.089A25.131,25.131,0,0,1,213.517,455.4Zm-.427-37.637a14.549,14.549,0,0,0-8.228,2.285,14.947,14.947,0,0,0-5.289,6.287,21.9,21.9,0,0,0-1.866,9.247v.527a22.778,22.778,0,0,0,1.784,9.222,14.215,14.215,0,0,0,5.253,6.284,15.775,15.775,0,0,0,8.773,2.288,23.571,23.571,0,0,0,5.723-.694,16.914,16.914,0,0,0,4.358-1.7v-6.766h-2.45l-.519,4.8-.314.193a10.9,10.9,0,0,1-3,1.191,14.767,14.767,0,0,1-3.625.45,12.254,12.254,0,0,1-6.8-1.83,11.452,11.452,0,0,1-4.277-5.3,21.042,21.042,0,0,1-1.426-8.143v-.578a21.082,21.082,0,0,1,1.333-7.762,12.132,12.132,0,0,1,4.018-5.413,10.678,10.678,0,0,1,6.526-1.995,16.584,16.584,0,0,1,2.881.238,12.144,12.144,0,0,1,2.465.7,8.615,8.615,0,0,1,2.023,1.157l.256.2.5,5.421H223.7v-6.8a15.215,15.215,0,0,0-4.389-2.459A17.626,17.626,0,0,0,213.091,417.763Z" transform="translate(-196.211 -416.266)" fill="#fff"/>
        </g>
        <g id="Group_2" data-name="Group 2" transform="translate(33.774 0.527)">
          <path id="Path_3" data-name="Path 3" d="M219.279,453.7v-3.167l4.095-.7V421.013l-4.095-.7v-3.19h9.095l17.939,28.517.151-.049V421.013l-4.5-.7v-3.19h13.14v3.19l-4.095.7V453.7h-4.523l-18.417-28.669-.151.051v24.748l4.5.7V453.7Z" transform="translate(-218.531 -416.37)" fill="#fff"/>
          <path id="Path_4" data-name="Path 4" d="M252.009,454.7h-5.679l-17.411-27.1v21.844l4.5.7V454.7H218.779v-4.545l4.095-.7V421.892l-4.095-.7v-4.569h10.257l16.928,26.909V421.9l-4.5-.7v-4.579H256.1v4.569l-4.094.7Zm-4.862-1.5h3.366v-32.57l4.095-.7v-1.812H242.963v1.8l4.5.7v25.753l-1.221.4-18.03-28.663h-7.933v1.812l4.095.7v30.076l-4.095.7V453.2h11.643v-1.778l-4.5-.7V424.8l1.212-.412Z" transform="translate(-218.779 -416.618)" fill="#fff"/>
        </g>
        <g id="Group_3" data-name="Group 3" transform="translate(74.983)">
          <path id="Path_5" data-name="Path 5" d="M263.373,454.4a16.419,16.419,0,0,1-9.183-2.411,14.87,14.87,0,0,1-5.528-6.609,23.427,23.427,0,0,1-1.847-9.522v-.527a22.532,22.532,0,0,1,1.935-9.561,15.622,15.622,0,0,1,5.552-6.6,15.227,15.227,0,0,1,8.644-2.411,18.293,18.293,0,0,1,6.482,1.1,15.579,15.579,0,0,1,4.874,2.815v7.888h-3.945l-.527-5.778a7.814,7.814,0,0,0-1.847-1.055,11.321,11.321,0,0,0-2.312-.654,15.785,15.785,0,0,0-2.751-.226,9.909,9.909,0,0,0-6.08,1.847,11.348,11.348,0,0,0-3.768,5.088,20.257,20.257,0,0,0-1.281,7.487v.578a20.2,20.2,0,0,0,1.368,7.851,10.653,10.653,0,0,0,4,4.963,11.459,11.459,0,0,0,6.395,1.709,13.89,13.89,0,0,0,3.441-.428,10.1,10.1,0,0,0,2.79-1.1l.552-5.1h3.87v7.939a17.2,17.2,0,0,1-4.925,2A24.247,24.247,0,0,1,263.373,454.4Z" transform="translate(-246.067 -416.018)" fill="#fff"/>
          <path id="Path_6" data-name="Path 6" d="M263.621,455.4a17.214,17.214,0,0,1-9.593-2.534,15.667,15.667,0,0,1-5.8-6.934,24.255,24.255,0,0,1-1.911-9.823v-.527a23.388,23.388,0,0,1,2-9.876,16.423,16.423,0,0,1,5.817-6.9,16.022,16.022,0,0,1,9.059-2.537,19.091,19.091,0,0,1,6.745,1.152,16.409,16.409,0,0,1,5.106,2.954l.253.223v8.975h-5.376l-.56-6.125a7.189,7.189,0,0,0-1.416-.763,10.445,10.445,0,0,0-2.158-.609,14.951,14.951,0,0,0-2.62-.216,9.222,9.222,0,0,0-5.635,1.7,10.673,10.673,0,0,0-3.52,4.76,19.659,19.659,0,0,0-1.227,7.213v.578a19.567,19.567,0,0,0,1.31,7.561,9.961,9.961,0,0,0,3.713,4.626,10.79,10.79,0,0,0,5.988,1.588,13.239,13.239,0,0,0,3.257-.4,10.105,10.105,0,0,0,2.27-.84l.585-5.389H275.2v9.1l-.353.22a17.96,17.96,0,0,1-5.138,2.089A25.134,25.134,0,0,1,263.621,455.4Zm-.426-37.637a14.55,14.55,0,0,0-8.228,2.285,14.947,14.947,0,0,0-5.289,6.287,21.9,21.9,0,0,0-1.866,9.247v.527a22.778,22.778,0,0,0,1.784,9.222,14.215,14.215,0,0,0,5.253,6.284,15.775,15.775,0,0,0,8.773,2.288,23.571,23.571,0,0,0,5.723-.694,16.915,16.915,0,0,0,4.358-1.7v-6.766h-2.45l-.519,4.8-.314.193a10.9,10.9,0,0,1-3,1.191,14.768,14.768,0,0,1-3.625.45,12.253,12.253,0,0,1-6.8-1.83,11.45,11.45,0,0,1-4.277-5.3,21.04,21.04,0,0,1-1.426-8.143v-.578a21.082,21.082,0,0,1,1.333-7.762,12.131,12.131,0,0,1,4.018-5.413,10.677,10.677,0,0,1,6.526-1.995,16.587,16.587,0,0,1,2.881.238,12.148,12.148,0,0,1,2.465.7,8.617,8.617,0,0,1,2.023,1.157l.256.2.5,5.421H273.8v-6.8a15.216,15.216,0,0,0-4.389-2.459A17.624,17.624,0,0,0,263.195,417.763Z" transform="translate(-246.315 -416.266)" fill="#fff"/>
        </g>
        <g id="Group_4" data-name="Group 4" transform="translate(109.033 0.527)">
          <path id="Path_7" data-name="Path 7" d="M269.567,453.7v-3.167l4.1-.7V421.013l-4.1-.7v-3.19h10.7l11.784,27.764h.151l11.407-27.764h11.031v3.19l-4.1.7v28.818l4.1.7V453.7H301.5v-3.167l4.321-.7V423.878l-.126-.027-11.883,28.542h-3.292L278.235,423.9l-.126.026.177,15.3v10.6l4.422.7V453.7Z" transform="translate(-268.819 -416.37)" fill="#fff"/>
          <path id="Path_8" data-name="Path 8" d="M315.64,454.7H301v-4.551l4.321-.7v-21.9L294.561,453.39h-4.283l-11.131-25.815.136,11.895v9.972l4.422.7V454.7H269.067v-4.545l4.1-.7V421.892l-4.1-.7v-4.569h11.947l11.354,26.751,10.991-26.751H315.64v4.569l-4.1.7v27.558l4.1.7ZM302.5,453.2h11.645v-1.788l-4.1-.7V420.632l4.1-.7v-1.812h-9.781l-11.407,27.764h-1.148l-11.784-27.764h-9.46v1.812l4.1.7v30.076l-4.1.7V453.2h11.645v-1.78l-4.422-.7V439.478l-.183-15.916,1.2-.236.364.528,12.092,28.04h2.3l11.931-28.653,1.2.252.126.634v26.588l-4.32.7Z" transform="translate(-269.067 -416.618)" fill="#fff"/>
        </g>
      </g>
    </g>
    <g id="Group_51120" data-name="Group 51120">
      <g id="Group_47" data-name="Group 47" transform="translate(0 4.298)">
        <g id="Group_45" data-name="Group 45" transform="translate(0.947 1.268)">
          <path id="Path_61" data-name="Path 61" d="M183.978,184.577q-1.9,1.732-3.862,3.367-2.146,1.836-4.357,3.574c-1.471,1.169-2.968,2.3-4.481,3.395-1.679,1.238-3.369,2.433-5.1,3.616-1.429.963-2.887,1.911-4.357,2.818-1.471-.907-2.914-1.855-4.344-2.818-1.732-1.168-3.436-2.364-5.112-3.616q-2.268-1.648-4.468-3.38-2.227-1.754-4.372-3.588c-1.306-1.086-2.584-2.214-3.849-3.354-1.471-1.32-2.928-2.682-4.343-4.069-1.1-1.059-2.185-2.131-3.23-3.23-1.5-1.527-2.957-3.066-4.359-4.647-.92-1-1.814-2.034-2.694-3.065q-2.184-2.537-4.274-5.182c-.756-.977-1.512-1.953-2.241-2.943q-2.1-2.783-4.069-5.676c-.66-.948-1.306-1.911-1.924-2.874-1.306-1.977-2.57-4-3.766-6.049-.591-.976-1.155-1.951-1.7-2.941-1.182-2.062-2.3-4.151-3.367-6.268q-.783-1.526-1.527-3.092c-1.017-2.1-1.993-4.221-2.9-6.379-.5-1.126-.963-2.254-1.418-3.382-.836-2.089-1.634-4.191-2.377-6.321-.453-1.265-.894-2.558-1.306-3.849q-.99-3.03-1.855-6.1c-.413-1.456-.812-2.928-1.169-4.4-.495-1.924-.934-3.848-1.347-5.8q-.536-2.494-.989-5.03c-.33-1.857-.633-3.726-.894-5.6-.274-1.842-.508-3.684-.7-5.554-.232-2.062-.412-4.151-.55-6.24-.123-1.719-.22-3.451-.274-5.182-.083-2.02-.125-4.069-.125-6.116,0-1.869.029-3.727.111-5.581,1.113-.549,2.241-1.086,3.367-1.608q3.609-1.67,7.3-3.175c.755-.3,1.525-.605,2.3-.907q4.186-1.651,8.5-3.066c.453-.151.907-.288,1.36-.44q4.7-1.5,9.512-2.749c.042-.4.1-.783.165-1.181q.742-5.26,1.924-10.379c-2.308.537-4.59,1.113-6.859,1.717-1.469.4-2.941.826-4.4,1.265-2.131.618-4.234,1.293-6.324,2.007-1.636.55-3.271,1.126-4.879,1.717q-2.968,1.115-5.882,2.31-2.619,1.072-5.2,2.227c-2.158.963-4.3,1.98-6.419,3.024-1.527.756-3.037,1.539-4.55,2.337q-.435,6.185-.44,12.482v.026q0,6.022.412,11.931c.083,1.224.179,2.448.3,3.671q.351,4.02.894,7.971c.111.8.22,1.581.344,2.379q.68,4.537,1.607,8.99c.083.439.179.865.277,1.306.7,3.271,1.5,6.515,2.377,9.7.056.165.1.33.138.495.963,3.395,2.007,6.749,3.162,10.062.069-.014.151-.027.22-.042a1.81,1.81,0,0,0-.178.152c1.154,3.3,2.4,6.57,3.752,9.786.069.179.152.357.22.535q1.982,4.661,4.207,9.169c.125.247.248.508.372.756q2.227,4.433,4.687,8.715c.152.261.3.522.468.783,1.663,2.874,3.409,5.677,5.237,8.441.151.234.3.453.468.687q2.8,4.205,5.869,8.234c.1.138.207.288.316.426q3.2,4.186,6.64,8.165a.449.449,0,0,0,.123-.054c-.027.027-.055.069-.082.1,2.281,2.667,4.673,5.251,7.133,7.766.131.145.268.283.412.413,2.31,2.377,4.7,4.66,7.148,6.885.359.317.7.62,1.046.937,2.254,2.006,4.562,3.957,6.914,5.826.633.524,1.278,1.032,1.924,1.527,2.1,1.649,4.248,3.23,6.419,4.77,1,.713,2.02,1.415,3.039,2.1q4.926,3.321,10.1,6.323,5.176-2.989,10.1-6.323c1.03-.7,2.046-1.4,3.065-2.116q3.256-2.309,6.392-4.756c.646-.495,1.291-1,1.938-1.538q3.525-2.8,6.9-5.815c.359-.316.7-.633,1.059-.948,2.433-2.212,4.825-4.508,7.133-6.872q-5.174-2.1-10.1-4.647Q186.185,182.605,183.978,184.577Z" transform="translate(-75.854 -35.518)" fill="#4cc21d"/>
        </g>
        <g id="Group_46" data-name="Group 46">
          <path id="Path_62" data-name="Path 62" d="M162.107,215.021l-.475-.275c-3.357-1.938-6.775-4.078-10.158-6.357-1.126-.76-2.128-1.453-3.059-2.116-2.373-1.683-4.485-3.251-6.455-4.8-.717-.549-1.356-1.056-1.943-1.541-2.281-1.815-4.623-3.788-6.941-5.851-.308-.285-.608-.549-.915-.822l-.126-.112c-2.692-2.449-5.045-4.716-7.2-6.935a6,6,0,0,1-.438-.438c-2.537-2.593-4.819-5.073-6.947-7.55l-.241-.273c-2.3-2.653-4.541-5.415-6.676-8.211-.109-.133-.23-.3-.339-.456-1.967-2.572-3.954-5.359-5.882-8.253-.159-.224-.316-.453-.475-.7-1.867-2.821-3.638-5.676-5.261-8.479-.142-.222-.291-.479-.439-.735-1.727-3.017-3.311-5.964-4.742-8.814l-.372-.758c-1.5-3.046-2.924-6.148-4.231-9.222-.042-.109-.076-.186-.109-.265-.043-.1-.085-.2-.123-.3-1.231-2.937-2.419-6.017-3.528-9.146h0l-.273-.779c-1.12-3.221-2.162-6.529-3.178-10.115-.043-.171-.077-.313-.123-.453-.908-3.281-1.712-6.564-2.406-9.806l-.037-.166c-.085-.39-.169-.772-.242-1.164-.617-2.96-1.161-6-1.614-9.024-.123-.8-.235-1.587-.346-2.389-.376-2.78-.67-5.4-.9-8.02-.11-1.1-.211-2.31-.3-3.689-.274-3.947-.413-7.983-.413-11.994,0-4.164.148-8.385.44-12.575l.039-.527.466-.247c1.78-.938,3.234-1.684,4.571-2.349,2.306-1.136,4.416-2.131,6.455-3.04,1.712-.766,3.469-1.519,5.222-2.238,1.881-.773,3.871-1.554,5.91-2.319,1.664-.613,3.314-1.192,4.911-1.729,2.235-.766,4.319-1.426,6.36-2.02,1.587-.479,3.034-.9,4.415-1.268,2.469-.659,4.723-1.222,6.894-1.727l1.479-.343-.34,1.481c-.783,3.412-1.426,6.877-1.91,10.3-.07.4-.122.769-.161,1.146l-.067.657-.64.165c-3.118.8-6.3,1.723-9.459,2.733-.224.076-.461.151-.7.225q-.327.1-.656.211c-2.914.963-5.756,1.989-8.446,3.049l-.224.088c-.693.273-1.386.545-2.066.818-2.432.991-4.874,2.055-7.254,3.155-1.02.473-1.954.918-2.841,1.35-.059,1.508-.086,3.106-.086,4.979,0,2.039.042,4.083.123,6.077.052,1.64.141,3.321.273,5.152.143,2.182.327,4.267.547,6.2.191,1.857.419,3.657.7,5.521.25,1.782.539,3.6.89,5.568.3,1.676.631,3.359.983,5,.446,2.109.884,3.994,1.339,5.763.317,1.3.686,2.69,1.162,4.376.572,2.029,1.192,4.069,1.845,6.067.4,1.261.839,2.545,1.3,3.822.7,2.02,1.476,4.076,2.366,6.291.5,1.25.963,2.346,1.4,3.353.822,1.956,1.763,4.026,2.887,6.346.491,1.039,1,2.07,1.515,3.073,1.146,2.263,2.24,4.3,3.347,6.23.578,1.04,1.129,1.993,1.692,2.921,1.146,1.961,2.4,3.981,3.747,6.017.6.933,1.242,1.891,1.911,2.854,1.286,1.9,2.646,3.792,4.047,5.647.729.99,1.495,1.978,2.234,2.933,1.367,1.732,2.8,3.465,4.244,5.143.779.914,1.7,1.987,2.674,3.043,1.287,1.453,2.7,2.961,4.334,4.624.923.968,1.938,1.986,3.211,3.211,1.363,1.336,2.815,2.694,4.32,4.046,1.472,1.329,2.684,2.386,3.822,3.331,1.42,1.215,2.881,2.415,4.352,3.571,1.524,1.2,2.976,2.3,4.439,3.36,1.558,1.162,3.218,2.336,5.085,3.6,1.453.978,2.682,1.779,3.813,2.486,1.217-.759,2.475-1.575,3.826-2.486,1.782-1.217,3.44-2.393,5.067-3.591,1.656-1.207,3.112-2.31,4.453-3.376,1.451-1.139,2.907-2.333,4.331-3.551,1.3-1.077,2.584-2.2,3.839-3.349l.006-.006c1.5-1.346,2.948-2.7,4.3-4.024l.489-.479.608.313c3.29,1.692,6.663,3.242,10.026,4.611l1.308.532-.986,1.01c-2.241,2.3-4.656,4.621-7.174,6.911-.192.169-.369.33-.545.488l-.525.471c-2.3,2.046-4.633,4.013-6.937,5.847-.58.479-1.2.976-1.953,1.55-2.011,1.575-4.174,3.184-6.419,4.778-1.024.719-2.046,1.423-3.083,2.126-3.389,2.284-6.808,4.425-10.161,6.36Zm-43.416-38.264c2.158,2.522,4.478,5.047,7.092,7.72.131.143.245.258.373.374,2.171,2.232,4.5,4.472,7.148,6.887l.116.1c.317.281.624.552.931.836,2.283,2.03,4.594,3.978,6.862,5.783.583.481,1.2.973,1.911,1.515,1.954,1.532,4.042,3.082,6.392,4.749.92.656,1.907,1.339,3.02,2.09,3.187,2.146,6.4,4.168,9.571,6.013,3.164-1.842,6.38-3.865,9.572-6.013,1.024-.7,2.037-1.395,3.05-2.106,2.218-1.574,4.356-3.164,6.353-4.726.736-.565,1.343-1.047,1.917-1.524,2.293-1.824,4.6-3.768,6.875-5.792l.512-.461c.182-.164.363-.327.548-.491,2.118-1.927,4.165-3.882,6.1-5.824-2.773-1.165-5.544-2.45-8.263-3.829-1.228,1.191-2.528,2.4-3.868,3.6-1.275,1.165-2.585,2.306-3.892,3.393-1.433,1.227-2.911,2.438-4.377,3.59-1.36,1.08-2.835,2.2-4.508,3.417-1.641,1.209-3.318,2.4-5.123,3.631-1.564,1.053-3,1.981-4.395,2.841l-.5.307-.5-.307c-1.294-.8-2.683-1.7-4.374-2.838-1.894-1.277-3.578-2.468-5.151-3.641-1.472-1.072-2.944-2.184-4.486-3.4-1.491-1.174-2.973-2.39-4.4-3.613-1.148-.953-2.379-2.027-3.868-3.372-1.524-1.367-3-2.746-4.373-4.095-1.287-1.24-2.323-2.275-3.253-3.254-1.644-1.673-3.08-3.205-4.38-4.67-.98-1.067-1.918-2.155-2.706-3.079-1.462-1.7-2.908-3.449-4.3-5.209-.753-.971-1.525-1.968-2.261-2.968-1.413-1.869-2.792-3.793-4.089-5.706-.677-.973-1.331-1.948-1.937-2.892-1.357-2.055-2.634-4.1-3.789-6.082-.567-.937-1.131-1.91-1.715-2.96-1.116-1.95-2.227-4.014-3.385-6.3-.522-1.017-1.04-2.066-1.537-3.116-1.133-2.344-2.089-4.445-2.917-6.418-.445-1.01-.911-2.125-1.422-3.395-.9-2.242-1.683-4.324-2.395-6.364-.463-1.29-.905-2.6-1.313-3.872-.659-2.017-1.288-4.082-1.865-6.133-.484-1.71-.858-3.118-1.178-4.433-.458-1.783-.9-3.694-1.353-5.828-.356-1.659-.69-3.362-.994-5.06-.356-1.993-.65-3.835-.9-5.631-.283-1.881-.514-3.712-.706-5.587-.222-1.956-.409-4.069-.552-6.275-.133-1.851-.224-3.558-.275-5.214-.083-2.011-.125-4.082-.125-6.148,0-2.133.036-3.921.112-5.623l.024-.56.5-.25c1.049-.518,2.156-1.047,3.387-1.618,2.407-1.113,4.877-2.188,7.34-3.192q1.035-.415,2.083-.825l.224-.088c2.723-1.073,5.6-2.11,8.545-3.082.224-.076.451-.146.677-.22s.453-.145.68-.22c2.993-.958,6-1.834,8.95-2.605.026-.191.057-.386.092-.587.418-2.956.956-5.963,1.6-8.944-1.7.409-3.465.858-5.359,1.362-1.357.369-2.789.78-4.369,1.257-2.024.588-4.077,1.24-6.29,2-1.584.534-3.218,1.108-4.859,1.712-2.014.756-3.984,1.529-5.849,2.3-1.736.71-3.473,1.455-5.169,2.214-2.017.9-4.106,1.884-6.387,3.01-1.2.6-2.5,1.263-4.059,2.079-.267,3.973-.4,7.97-.4,11.888,0,3.994.139,7.986.41,11.891.092,1.36.189,2.55.3,3.641.227,2.6.518,5.192.89,7.94.109.789.218,1.568.341,2.36.448,2.991.986,6,1.6,8.941.073.392.153.755.234,1.125l.039.172c.687,3.211,1.483,6.458,2.366,9.656.047.139.1.329.143.517.917,3.235,1.861,6.263,2.868,9.2l3.532-.7-3,2.227c1.1,3.1,2.277,6.156,3.505,9.09.042.108.076.188.109.267.043.1.083.2.122.294,1.28,3.013,2.687,6.082,4.171,9.09l.367.75c1.416,2.818,2.984,5.735,4.663,8.669.162.277.3.512.446.748,1.623,2.8,3.374,5.626,5.227,8.423.149.232.293.44.45.664,1.921,2.879,3.884,5.633,5.849,8.205.106.152.2.286.3.407,2.125,2.783,4.347,5.515,6.617,8.139l-.551.475.037.046Z" transform="translate(-75.194 -34.634)" fill="#4cc21d"/>
          <path id="Path_265261" data-name="Path 265261" d="M104.791,133.47a.466.466,0,0,0-.088.047l.182.227Z" transform="translate(-62.366 8.333)" fill="#4cc21d"/>
        </g>
      </g>
      <g id="Group_50" data-name="Group 50" transform="translate(128.904 6.194)">
        <g id="Group_48" data-name="Group 48" transform="translate(0.951 1.09)">
          <path id="Path_63" data-name="Path 63" d="M208.287,51.588c-1.5-.8-3.01-1.567-4.537-2.323q-3.174-1.588-6.433-3.024c-1.717-.783-3.436-1.525-5.182-2.24h-.013c-1.938-.8-3.9-1.568-5.884-2.3-1.608-.605-3.244-1.182-4.879-1.733-2.089-.7-4.192-1.374-6.323-2.006-1.458-.44-2.928-.852-4.4-1.251a47.621,47.621,0,0,0-4.934,8.66v.014q.1.577.165,1.154,4.8,1.237,9.511,2.763c.455.138.908.288,1.362.439,2.874.935,5.7,1.967,8.5,3.052.769.3,1.539.605,2.3.908q3.689,1.526,7.3,3.188h.013c1.128.524,2.243,1.044,3.354,1.6.083,1.855.11,3.726.11,5.594q0,3.073-.123,6.1c-.055,1.746-.151,3.478-.276,5.2-.138,2.089-.317,4.164-.551,6.225q-.288,2.8-.7,5.567c-.261,1.871-.55,3.726-.894,5.581-.3,1.69-.631,3.382-.988,5.045-.4,1.938-.852,3.877-1.347,5.788-.357,1.471-.756,2.956-1.168,4.412a45.993,45.993,0,0,0,10.116,2.557c.042-.165.1-.344.138-.522q1.319-4.784,2.379-9.677c.095-.439.191-.894.288-1.334.6-2.954,1.141-5.951,1.594-8.961.123-.8.234-1.6.357-2.4.357-2.627.66-5.278.88-7.946.123-1.224.219-2.448.3-3.684q.411-5.918.412-11.931v-.013Q208.726,57.773,208.287,51.588Z" transform="translate(-165.703 -36.716)" fill="#4cc21d"/>
        </g>
        <g id="Group_49" data-name="Group 49" transform="translate(0 0)">
          <path id="Path_64" data-name="Path 64" d="M203.377,111.945l-.844-.116a47.1,47.1,0,0,1-10.324-2.61l-.812-.31.237-.836c.459-1.624.838-3.056,1.158-4.379.508-1.957.958-3.89,1.341-5.755.346-1.613.677-3.3.984-5.02.31-1.673.6-3.485.888-5.545.274-1.839.508-3.7.7-5.532.224-1.974.4-4,.547-6.192.133-1.845.222-3.532.274-5.164.082-2.011.122-4.052.122-6.072,0-1.847-.027-3.486-.086-4.991-.9-.44-1.8-.858-2.644-1.251l-.2-.085c-2.319-1.075-4.694-2.112-7.261-3.175-.745-.3-1.514-.6-2.281-.9-3.016-1.174-5.779-2.166-8.442-3.033l-.063-.02c-.426-.142-.852-.284-1.28-.413-3.1-1.006-6.281-1.931-9.472-2.752l-.637-.165-.07-.653q-.058-.544-.156-1.09l-.014-.165v-.2l.08-.2a48.694,48.694,0,0,1,5.033-8.832l.384-.534.634.172c1.709.463,3.115.862,4.425,1.258,2,.593,4.075,1.253,6.352,2.016,1.727.581,3.38,1.168,4.911,1.743,1.861.684,3.793,1.438,5.745,2.238l.178.067c1.782.73,3.489,1.468,5.217,2.255,2.247,1,4.425,2.02,6.464,3.039,1.677.832,3.169,1.6,4.557,2.334l.465.247.036.525c.294,4.194.443,8.419.443,12.561,0,4.023-.141,8.06-.415,12.012-.093,1.4-.191,2.585-.306,3.713-.208,2.532-.5,5.148-.882,7.977-.06.4-.115.775-.171,1.151-.062.425-.123.848-.189,1.271-.448,2.964-.987,6-1.6,9.007l-.293,1.346c-.686,3.194-1.491,6.468-2.389,9.726-.017.08-.049.2-.08.311Zm-9.68-4.2a45.356,45.356,0,0,0,8.268,2.083c.864-3.154,1.628-6.283,2.286-9.339l.29-1.336c.607-2.967,1.141-5.966,1.583-8.9.066-.422.126-.839.188-1.258.056-.382.11-.763.171-1.149.379-2.781.664-5.363.871-7.88.113-1.123.21-2.284.3-3.669.273-3.911.412-7.9.412-11.869,0-3.937-.136-7.94-.4-11.915-1.238-.656-2.568-1.333-4.046-2.065-2.016-1.009-4.166-2.02-6.4-3.007-1.659-.756-3.29-1.462-4.986-2.159h0l-.186-.072c-1.984-.815-3.953-1.584-5.849-2.283-1.519-.57-3.148-1.149-4.854-1.723-2.254-.756-4.313-1.409-6.291-2-1.129-.34-2.33-.684-3.737-1.07a46.67,46.67,0,0,0-4.343,7.7l.043.284c3.02.791,6.026,1.67,8.944,2.617.425.129.868.277,1.31.423,2.749.9,5.544,1.9,8.6,3.088q1.164.456,2.3.911c2.5,1.032,4.9,2.08,7.155,3.121h0l.2.088c1.066.495,2.215,1.032,3.374,1.605l.5.248.024.561c.076,1.684.112,3.528.112,5.636,0,2.046-.042,4.113-.125,6.142-.052,1.647-.142,3.359-.275,5.225-.146,2.22-.327,4.271-.554,6.265-.189,1.852-.427,3.74-.7,5.6-.291,2.079-.585,3.918-.9,5.613-.31,1.736-.644,3.445-.994,5.072-.389,1.888-.845,3.851-1.357,5.825C194.369,105.256,194.059,106.438,193.7,107.744Z" transform="translate(-165.04 -35.956)" fill="#4cc21d"/>
        </g>
      </g>
      <g id="Group_53" data-name="Group 53" transform="translate(83.352 21.164)">
        <g id="Group_51" data-name="Group 51" transform="translate(0.948 0.95)">
          <path id="Path_65" data-name="Path 65" d="M155.753,48.167c-2.283-.288-4.591-.508-6.9-.687-1.168-.082-2.337-.151-3.505-.22-2.35-.123-4.7-.207-7.066-.207-.562-.029-1.719.426-2.283.426s-1.937,6.473-2.019,10.006c-.014.7-.029,1.4-.029,2.1,0,2.8.123,5.567.386,8.3a89.063,89.063,0,0,0,1.594,10.4h.014c.178.908.384,1.815.618,2.709q.968,3.938,2.3,7.725a87.98,87.98,0,0,0,3.38,8.33c.357.756.729,1.512,1.1,2.268h.013a84.879,84.879,0,0,0,5.209,9.016q.7,1.074,1.445,2.1a86.087,86.087,0,0,0,5.511,7.077q2.66,3.073,5.567,5.869h.014c.66.647,1.319,1.265,1.993,1.871a88.067,88.067,0,0,0,17.059,12.123c.894-1.471,1.745-2.956,2.584-4.468s1.676-3.079,2.488-4.633a77.411,77.411,0,0,1-8.852-5.621,76.349,76.349,0,0,1-8.22-6.941c-.522-.495-1.032-1.019-1.539-1.539H166.6a78.787,78.787,0,0,1-10.446-13.32c-.894-1.416-1.732-2.874-2.531-4.357-1.209-2.268-2.323-4.618-3.313-7.024a76.437,76.437,0,0,1-3.01-8.633V80.84c-.207-.714-.4-1.43-.577-2.158a76.731,76.731,0,0,1-1.884-10.571,75.475,75.475,0,0,1-.466-8.522c0-.646.014-1.306.026-1.953,1.733.1,3.465.208,5.182.372,1.746.138,3.492.316,5.224.537-.013.343-.013.7-.013,1.044a68.479,68.479,0,0,0,3.133,20.439.708.708,0,0,1,.165.029,1.033,1.033,0,0,1-.055.3A66.928,66.928,0,0,0,162.8,91.59c.687,1.293,1.415,2.544,2.2,3.78a67.223,67.223,0,0,0,7.354,9.745,2.024,2.024,0,0,1,.275.1.581.581,0,0,1-.056.138,68.136,68.136,0,0,0,8.208,7.6,69.433,69.433,0,0,0,8.852,5.869c.687-1.594,1.347-3.217,1.978-4.854s1.238-3.311,1.815-4.989a56.062,56.062,0,0,1-8.852-6.433,59.339,59.339,0,0,1-6.145-6.323c-.714-.865-1.4-1.746-2.075-2.653a56.821,56.821,0,0,1-6.324-10.941c-.453-1.019-.865-2.049-1.264-3.093V79.52a56.665,56.665,0,0,1-2.42-8.481,57.667,57.667,0,0,1-1.139-10.872c1.745.316,3.476.687,5.2,1.085q2.679.6,5.32,1.32A46.373,46.373,0,0,0,177.9,74.036q.7,2.163,1.608,4.247V78.3a47.13,47.13,0,0,0,5.333,9.224h.014a44.2,44.2,0,0,0,2.885,3.534,46.719,46.719,0,0,0,8.839,7.6c.466-1.692.892-3.382,1.278-5.086.453-1.993.879-4,1.237-6.02a36.348,36.348,0,0,1-7.4-8.468,28.035,28.035,0,0,1-1.443-2.488,35.268,35.268,0,0,1-3.641-10.653,35.791,35.791,0,0,1-.248-11.08c-1.869-.618-3.752-1.2-5.663-1.732-1.472-.412-2.956-.811-4.453-1.181q-3.052-.786-6.145-1.43c-1.347-.288-2.694-.55-4.042-.8-2.171-.412-4.37-.769-6.584-1.072C158.241,48.469,157,48.3,155.753,48.167Z" transform="translate(-133.951 -47.052)" fill="#4cc21d"/>
        </g>
        <g id="Group_52" data-name="Group 52" transform="translate(0)">
          <path id="Path_66" data-name="Path 66" d="M180.779,138.944l-.793-.432a89,89,0,0,1-17.245-12.255c-.6-.542-1.192-1.09-1.786-1.669l-.24-.22c-1.971-1.9-3.864-3.9-5.626-5.933a87.4,87.4,0,0,1-5.572-7.155c-.491-.682-.984-1.4-1.461-2.128a86.273,86.273,0,0,1-5-8.588h-.007l-.274-.531c-.382-.778-.749-1.529-1.1-2.28a89.472,89.472,0,0,1-3.422-8.425c-.9-2.6-1.686-5.232-2.32-7.811-.194-.74-.373-1.514-.537-2.3l-.1-.438a90.338,90.338,0,0,1-1.61-10.517c-.26-2.7-.392-5.525-.392-8.39,0-.707.014-1.416.029-2.122a36.964,36.964,0,0,1,.362-6.815A5.786,5.786,0,0,1,135.217,48a4.606,4.606,0,0,1,3.4-1.6h.053c2.1,0,4.35.066,7.016.207,1.184.069,2.353.139,3.522.221,2.56.2,4.831.425,6.944.692,1.132.125,2.323.278,3.749.484,2.227.3,4.459.667,6.626,1.079,1.511.278,2.841.541,4.063.8,1.973.407,4.056.892,6.181,1.439,1.37.339,2.836.727,4.475,1.187,1.888.531,3.808,1.118,5.7,1.745l.746.247-.1.779a34.926,34.926,0,0,0,.24,10.788,34.378,34.378,0,0,0,3.547,10.376,27.465,27.465,0,0,0,1.4,2.413,35.4,35.4,0,0,0,7.211,8.26l.422.352-.1.541c-.319,1.8-.714,3.73-1.245,6.066-.383,1.693-.816,3.419-1.29,5.129l-.349,1.261-1.09-.722a47.794,47.794,0,0,1-9.017-7.759c-.971-1.076-1.864-2.158-2.66-3.22h0l-.3-.386a48.332,48.332,0,0,1-5.439-9.407l-.079-.2c-.583-1.352-1.108-2.747-1.562-4.152A47.42,47.42,0,0,1,175.112,63.6c-1.527-.407-3.08-.788-4.626-1.133-1.456-.337-2.779-.621-4.016-.862a56.765,56.765,0,0,0,1.1,9.534,55.739,55.739,0,0,0,2.379,8.34l.059.168c.43,1.121.806,2.04,1.182,2.882a56.067,56.067,0,0,0,6.221,10.765c.676.911,1.344,1.766,2.043,2.611a58.33,58.33,0,0,0,6.042,6.218,55.129,55.129,0,0,0,8.7,6.324l.669.393-.252.735c-.577,1.674-1.191,3.363-1.826,5.02-.649,1.68-1.32,3.324-1.993,4.888l-.417.966-.917-.512a70.834,70.834,0,0,1-8.974-5.95,69.277,69.277,0,0,1-8.323-7.71l-.222-.235a68.367,68.367,0,0,1-7.458-9.882c-.8-1.265-1.532-2.522-2.231-3.835a68.067,68.067,0,0,1-4.729-11.057h-.009l-.209-.663a69.379,69.379,0,0,1-3.178-20.726V59.67c-1.43-.169-2.885-.313-4.336-.428-1.442-.138-2.879-.235-4.176-.313-.006.32-.01.636-.01.948a78.41,78.41,0,0,0,2.323,18.859c.172.7.357,1.4.57,2.128l.036.143a75.8,75.8,0,0,0,2.937,8.4c.961,2.334,2.063,4.67,3.275,6.944.835,1.557,1.651,2.963,2.495,4.3,1.387,2.222,2.859,4.343,4.375,6.3a75.558,75.558,0,0,0,5.669,6.574h0l.293.287c.465.478.993,1.019,1.512,1.512a75.4,75.4,0,0,0,8.128,6.864,76.613,76.613,0,0,0,8.746,5.555l.819.446-.432.829c-.986,1.888-1.758,3.323-2.5,4.654-.92,1.66-1.771,3.132-2.6,4.5Zm-19.022-16.208h0l.29.271c.656.641,1.3,1.244,1.964,1.841A87.165,87.165,0,0,0,180.1,136.406c.669-1.123,1.36-2.327,2.1-3.657.624-1.118,1.27-2.31,2.046-3.789a78.66,78.66,0,0,1-8.142-5.24,77.282,77.282,0,0,1-8.32-7.026c-.449-.426-.9-.884-1.314-1.308l-.254-.247a77.569,77.569,0,0,1-6.095-7.027c-1.552-2.01-3.059-4.182-4.478-6.453-.864-1.369-1.7-2.813-2.561-4.412-1.244-2.333-2.372-4.723-3.354-7.112a77.593,77.593,0,0,1-3.046-8.735l-.036-.138c-.2-.709-.383-1.386-.549-2.066a77.688,77.688,0,0,1-1.905-10.7,76.625,76.625,0,0,1-.473-8.623c0-.638.014-1.291.027-1.93l.02-.981.983.011c1.551.085,3.386.2,5.221.373,1.75.138,3.522.32,5.253.539l.862.11-.033.869c-.014.33-.014.676-.014,1.007a67.6,67.6,0,0,0,2.927,19.634l.37.093v.739a1.749,1.749,0,0,1-.02.26,66.343,66.343,0,0,0,4.621,10.825c.679,1.273,1.386,2.489,2.166,3.72a66.32,66.32,0,0,0,7.089,9.43c.034.014.072.029.109.046l.815.347-.154.443a67.48,67.48,0,0,0,7.7,7.075,69.035,69.035,0,0,0,7.811,5.265c.524-1.244,1.043-2.532,1.549-3.844.535-1.393,1.054-2.813,1.549-4.228a57.011,57.011,0,0,1-8.333-6.142,60.541,60.541,0,0,1-6.243-6.425c-.722-.874-1.41-1.756-2.109-2.7a57.932,57.932,0,0,1-6.43-11.128c-.4-.907-.812-1.907-1.281-3.133l-.063-.182a57.736,57.736,0,0,1-2.4-8.463,58.947,58.947,0,0,1-1.161-11.05l-.013-1.151,1.132.205c1.59.288,3.3.646,5.241,1.1,1.788.4,3.591.845,5.354,1.327l.656.179.042.679a45.56,45.56,0,0,0,2.128,11.23c.456,1.409.986,2.809,1.575,4.162l.079.194a46.276,46.276,0,0,0,4.867,8.472h0l.3.392a43.406,43.406,0,0,0,2.824,3.456,45.833,45.833,0,0,0,7.567,6.7c.331-1.257.64-2.515.92-3.758.472-2.076.835-3.822,1.132-5.442a37.216,37.216,0,0,1-7.166-8.33,28.912,28.912,0,0,1-1.485-2.558,36.265,36.265,0,0,1-3.735-10.93,36.947,36.947,0,0,1-.577-6.509,36.352,36.352,0,0,1,.228-4.069c-1.628-.528-3.267-1.024-4.884-1.478s-3.066-.838-4.423-1.174c-2.1-.542-4.158-1.019-6.109-1.422-1.21-.26-2.522-.518-4.022-.793-2.141-.406-4.34-.765-6.541-1.066-1.415-.2-2.59-.356-3.7-.478h-.017c-2.086-.264-4.329-.488-6.854-.683-1.156-.082-2.319-.149-3.479-.218-2.659-.139-4.888-.205-7.02-.205-.594-.027-1.151-.027-1.7-.027-.3,0-.6,0-.9,0a86.8,86.8,0,0,0-.746,9.529c-.013.69-.027,1.386-.027,2.08,0,2.806.129,5.568.382,8.212a88.487,88.487,0,0,0,1.42,9.545H137l.165.766c.176.9.38,1.791.605,2.651.624,2.534,1.387,5.1,2.274,7.653a87.415,87.415,0,0,0,3.346,8.241q.435.915.888,1.835l.217.412a83.758,83.758,0,0,0,5.152,8.915c.463.709.94,1.4,1.42,2.073a85.6,85.6,0,0,0,5.459,7.011c1.643,1.9,3.4,3.76,5.234,5.542Z" transform="translate(-133.29 -46.39)" fill="#4cc21d"/>
        </g>
      </g>
      <g id="Group_56" data-name="Group 56" transform="translate(62.511)">
        <g id="Group_54" data-name="Group 54" transform="translate(0.953 0.948)">
          <path id="Path_67" data-name="Path 67" d="M214.451,132.2a66.95,66.95,0,0,1-9.03-2.611c-.908,2.143-1.884,4.26-2.887,6.35-.495,1.044-1,2.075-1.539,3.106-1.073,2.116-2.185,4.192-3.354,6.254-.549.989-1.128,1.98-1.719,2.956q-1.793,3.073-3.752,6.034c-.633.977-1.265,1.938-1.938,2.887a95.725,95.725,0,0,1-9.471-4.618,94.438,94.438,0,0,1-8.839-5.554,95.52,95.52,0,0,1-8.205-6.446q-.764-.661-1.527-1.362h-.013c-2.09-1.91-4.11-3.9-6.034-5.993s-3.768-4.248-5.5-6.488c-.494-.633-.976-1.265-1.456-1.911a95.712,95.712,0,0,1-5.828-8.852c-.165-.261-.33-.549-.482-.825a94.353,94.353,0,0,1-4.769-9.484c-.317-.716-.618-1.43-.92-2.158-1.073-2.64-2.049-5.32-2.9-8.069q-1.237-4-2.145-8.138v-.014c-.165-.7-.3-1.387-.439-2.089a97.418,97.418,0,0,1-1.458-10.323q-.392-4.371-.4-8.852c0-.522,0-1.059.014-1.581a98.281,98.281,0,0,1,.729-10.529q.557-4.638,1.552-9.141V44.74c.1-.468.208-.935.316-1.4,3.313-.208,6.654-.3,10.022-.317h.811c3.369.014,6.694.11,10.007.3a6.512,6.512,0,0,0,.729.042q5.113.351,10.144.961c.151.014.316.042.466.056a65.778,65.778,0,0,1,4.413-10.227c-2.557-.37-5.141-.673-7.726-.934-1.1-.11-2.2-.22-3.3-.3h-.014c-2.638-.22-5.278-.37-7.944-.481-1.059-.042-2.116-.069-3.175-.1q-2-.043-4-.042c-1.347,0-2.694.013-4.027.042-1.057.027-2.116.055-3.175.1-2.667.11-5.306.261-7.945.495-1.1.082-2.212.178-3.311.3h-.014a106.585,106.585,0,0,0-2.831,11.093c-.069.3-.123.605-.179.908v.013c-.633,3.217-1.113,6.5-1.443,9.814q-.514,5.238-.537,10.613V66c0,3.422.152,6.818.468,10.158.317,3.491.812,6.941,1.458,10.323a.275.275,0,0,1,.151-.027c-.027.1-.055.192-.1.3v.014c.633,3.34,1.43,6.638,2.379,9.855.6,2.131,1.291,4.219,2.034,6.3.439,1.251.92,2.5,1.415,3.737,1.1,2.75,2.31,5.458,3.643,8.1.288.6.605,1.209.921,1.814q2.206,4.227,4.758,8.235c.37.577.742,1.154,1.126,1.717q2.453,3.691,5.2,7.162c.838,1.072,1.69,2.116,2.57,3.148h.014q2.083,2.494,4.37,4.838c2.352,2.475,4.839,4.839,7.409,7.066a1.179,1.179,0,0,1,.234.055.414.414,0,0,0-.069.082c2.626,2.268,5.374,4.413,8.207,6.433s5.786,3.9,8.824,5.636a104.62,104.62,0,0,0,9.485,4.852c2.97,1.347,6.022,2.557,9.128,3.628.317.11.646.221.963.331q3.069-4.044,5.881-8.248c.151-.22.3-.453.453-.673,1.829-2.763,3.588-5.581,5.251-8.453.151-.261.3-.509.453-.77q2.475-4.287,4.687-8.742c.123-.248.248-.482.372-.729,1.484-3.01,2.9-6.075,4.205-9.182-.288-.261-.564-.508-.852-.742Z" transform="translate(-119.428 -32.299)" fill="#4cc21d"/>
        </g>
        <g id="Group_55" data-name="Group 55" transform="translate(0)">
          <path id="Path_68" data-name="Path 68" d="M194.638,171.166l-1.613-.557c-3.158-1.089-6.255-2.323-9.207-3.66a105.158,105.158,0,0,1-9.568-4.9c-3.01-1.716-6.006-3.63-8.9-5.684-2.9-2.072-5.672-4.241-8.232-6.449h-.009l-.2-.175c-2.637-2.286-5.151-4.683-7.476-7.131-1.475-1.514-2.89-3.073-4.2-4.631l-.219-.245c-.884-1.036-1.733-2.076-2.6-3.178-1.812-2.288-3.577-4.72-5.24-7.221-.373-.547-.739-1.116-1.1-1.686-1.706-2.667-3.32-5.461-4.831-8.353-.321-.614-.641-1.23-.935-1.844-1.291-2.554-2.528-5.3-3.667-8.154-.578-1.443-1.032-2.646-1.43-3.776-.813-2.278-1.486-4.359-2.052-6.352-.849-2.877-1.581-5.841-2.179-8.821l0,0-.133-.7c-.027-.139-.053-.277-.08-.416l-.055-.287c-.664-3.479-1.159-6.984-1.471-10.416-.313-3.3-.471-6.752-.471-10.243v-.331c.013-3.6.2-7.2.541-10.7.331-3.333.818-6.643,1.443-9.839l.01-.065c.057-.316.115-.633.187-.948A107.491,107.491,0,0,1,123.8,33.24l.207-.667h.659c.977-.109,2.024-.205,3.3-.3,2.383-.211,5-.374,7.977-.5,1.065-.042,2.126-.069,3.189-.1,2.676-.055,5.379-.055,8.07,0,1.067.029,2.132.056,3.194.1,2.9.119,5.5.275,7.956.481l.036,0c1.109.082,2.217.194,3.323.3,2.862.29,5.4.6,7.769.941l1.34.2-.64,1.192a64.751,64.751,0,0,0-4.35,10.079l-.237.713-.747-.067c-.089-.009-.182-.02-.275-.032-.066-.009-.131-.017-.194-.023-3.255-.4-6.641-.722-10.092-.958a7.831,7.831,0,0,1-.8-.046c-3.151-.182-6.5-.283-9.907-.3h-.806c-3.271.013-6.309.1-9.257.273-.046.2-.09.4-.131.594l-.023.121c-.657,2.986-1.175,6.03-1.537,9.05a97.524,97.524,0,0,0-.723,10.43c-.013.524-.013,1.052-.013,1.567,0,2.9.133,5.847.395,8.768a97.4,97.4,0,0,0,1.443,10.225c.135.69.27,1.364.432,2.055l.026.128c.588,2.673,1.294,5.35,2.1,7.96s1.748,5.224,2.872,7.993c.3.714.6,1.422.91,2.131a93.324,93.324,0,0,0,4.725,9.395c.151.275.306.547.461.792a95.624,95.624,0,0,0,5.791,8.788c.476.638.953,1.265,1.443,1.892,1.706,2.208,3.537,4.367,5.446,6.428,1.746,1.9,3.664,3.806,5.709,5.689l.287.253q.753.691,1.505,1.341a95.631,95.631,0,0,0,8.131,6.387,97.014,97.014,0,0,0,17.428,9.772c.475-.69.945-1.407,1.476-2.227,1.314-1.993,2.57-4.009,3.73-6,.613-1.013,1.185-2,1.709-2.937,1.161-2.052,2.283-4.142,3.336-6.222.514-.987,1.013-1.994,1.528-3.085,1.125-2.339,2.062-4.4,2.871-6.314l.353-.832.848.311a66.172,66.172,0,0,0,8.9,2.575l.275.059.178.176c.288.235.564.483.852.745l.5.452-.261.621c-1.241,2.953-2.664,6.059-4.23,9.234l-.373.733c-1.443,2.911-3.03,5.871-4.714,8.792l-.453.77c-1.6,2.769-3.38,5.63-5.281,8.5l-.463.686c-1.828,2.745-3.819,5.535-5.911,8.286ZM159.086,149.1c2.31,1.957,4.783,3.878,7.367,5.722,2.839,2.016,5.782,3.894,8.743,5.583a103.574,103.574,0,0,0,9.4,4.812c2.9,1.316,5.944,2.525,9.049,3.6l.31.106c1.915-2.542,3.743-5.115,5.436-7.653l.218-.326c.082-.121.161-.242.242-.36,1.871-2.828,3.627-5.656,5.212-8.392l.452-.768c1.664-2.887,3.232-5.811,4.659-8.689l.373-.732c1.436-2.914,2.753-5.772,3.915-8.5-.052-.046-.1-.089-.156-.133a67.844,67.844,0,0,1-8.08-2.3c-.737,1.706-1.577,3.537-2.552,5.567-.525,1.108-1.033,2.133-1.554,3.133-1.062,2.1-2.2,4.215-3.37,6.284-.531.956-1.115,1.96-1.732,2.978-1.172,2.006-2.443,4.052-3.772,6.066-.7,1.082-1.3,2-1.957,2.914l-.44.621-.7-.3a96.972,96.972,0,0,1-9.564-4.664,95.489,95.489,0,0,1-8.925-5.607,97.158,97.158,0,0,1-8.284-6.509c-.419-.363-.844-.739-1.267-1.125l-.287-.248c-2.185-2-4.235-4.034-6.092-6.05-1.945-2.1-3.815-4.3-5.551-6.55-.5-.634-.981-1.273-1.466-1.924a97.348,97.348,0,0,1-5.89-8.941c-.156-.248-.331-.554-.492-.845a95.34,95.34,0,0,1-4.806-9.565c-.317-.716-.621-1.436-.928-2.172-1.146-2.826-2.1-5.491-2.93-8.152-.832-2.693-1.561-5.456-2.165-8.215l-.023-.108c-.156-.676-.288-1.34-.42-2.016a98.508,98.508,0,0,1-1.472-10.425c-.267-2.973-.4-5.98-.4-8.933,0-.531,0-1.076.013-1.605a99.57,99.57,0,0,1,.736-10.621c.367-3.053.889-6.133,1.552-9.155l.014-.075c.1-.475.209-.951.321-1.428l.161-.686.7-.044c3.207-.2,6.5-.3,10.076-.319h.813c3.445.014,6.829.118,10.063.306a6.6,6.6,0,0,0,.673.039l.066,0c3.387.232,6.716.545,9.9.93a66.732,66.732,0,0,1,3.6-8.441c-1.958-.265-4.052-.511-6.356-.743-1.079-.108-2.159-.215-3.24-.3l-.057,0c-2.44-.2-5.027-.36-7.9-.479-1.052-.042-2.108-.069-3.162-.1-2.656-.055-5.341-.053-7.981,0-1.049.027-2.1.055-3.158.1-2.948.122-5.532.283-7.9.492-1.02.076-1.888.152-2.689.235a105.772,105.772,0,0,0-2.621,10.4c-.065.286-.115.55-.161.809l-.019.112c-.621,3.158-1.1,6.43-1.429,9.725-.34,3.446-.519,6.987-.532,10.522v.326c0,3.433.155,6.821.462,10.069.283,3.112.717,6.28,1.3,9.436h.627l-.346,1.209c-.01.036-.02.073-.032.109.617,3.215,1.395,6.422,2.311,9.534.557,1.961,1.217,4,2.019,6.245.39,1.11.836,2.287,1.4,3.7,1.121,2.8,2.334,5.5,3.61,8.022.293.614.6,1.208.914,1.8,1.485,2.844,3.07,5.59,4.716,8.162.385.6.742,1.154,1.11,1.694,1.64,2.468,3.374,4.855,5.156,7.108.756.966,1.5,1.881,2.265,2.788h.006l.3.341c1.339,1.6,2.793,3.212,4.323,4.783,2.235,2.354,4.643,4.656,7.166,6.851.046.013.093.03.144.049l1.349.529Z" transform="translate(-118.764 -31.639)" fill="#4cc21d"/>
        </g>
      </g>
      <g id="Group_59" data-name="Group 59" transform="translate(21.156 24.408)">
        <path id="Path_265262" data-name="Path 265262" d="M113.537,108.51l.01-.009c-.623-1.039-1.24-2.1-1.834-3.172-.976-1.735-1.927-3.527-2.826-5.327-.3-.588-.6-1.2-.9-1.8.772,1.615,1.541,3.148,2.286,4.56C111.349,104.787,112.537,106.842,113.537,108.51Z" transform="translate(-82.092 -27.111)" fill="#4cc21d"/>
        <path id="Path_265263" data-name="Path 265263" d="M157.894,149.633c-2.4-1.554-4.848-3.278-7.283-5.125-.473-.344-.974-.722-1.491-1.123-2.782-2.158-5.522-4.443-8.145-6.793l-.4-.366-.024-.02h0c-.369-.336-.749-.683-1.133-1.056-2-1.844-4.014-3.824-5.981-5.887-.778-.8-1.555-1.648-2.308-2.466l-.075-.08c-1.452-1.607-2.931-3.319-4.524-5.234-.875-1.057-1.726-2.129-2.527-3.184-1.235-1.574-2.461-3.232-3.742-5.069-.755-1.046-1.529-2.174-2.439-3.554-.221-.336-.41-.626-.58-.888l-.047-.072h0l.046.072-10.839,5.935c.185.283.37.565.552.841.989,1.527,1.941,2.937,2.914,4.31.913,1.33,1.933,2.739,3.118,4.31.93,1.235,2.042,2.69,3.241,4.123,1.029,1.316,2.149,2.663,3.426,4.119,1.123,1.3,2.291,2.591,3.568,3.956,1.119,1.207,2.373,2.509,3.831,3.984,1.181,1.181,2.459,2.407,3.8,3.647,1.468,1.389,3.022,2.779,4.618,4.135,1.311,1.143,2.5,2.131,3.627,3.019a7.719,7.719,0,0,0,3.294.988,26.32,26.32,0,0,0,3.307,1.726l.451.321a5.82,5.82,0,0,0,1.436.531,8.092,8.092,0,0,0,1.839.323.7.7,0,0,0,.4-.08c.483-.343.971-.7,1.451-1.046a15.032,15.032,0,0,0,3.878-1.849,6.7,6.7,0,0,0,2.821-.914l1.014-.824Z" transform="translate(-82.782 -22.54)" fill="#4cc21d"/>
        <path id="Path_265264" data-name="Path 265264" d="M104.6,109.988q-.613-1.046-1.277-2.214c.43.77.851,1.5,1.271,2.217Z" transform="translate(-84.123 -22.949)" fill="#4cc21d"/>
        <path id="Path_265265" data-name="Path 265265" d="M103.18,107.656c-1.024-1.9-2.02-3.9-2.881-5.689l-.011.01c.472.983.947,1.953,1.409,2.877.739,1.43,1.4,2.663,2.009,3.769C103.528,108.3,103.351,107.974,103.18,107.656Z" transform="translate(-85.441 -25.473)" fill="#4cc21d"/>
        <path id="Path_265266" data-name="Path 265266" d="M180.8,161.033c-2.946-1.747-5.9-3.687-8.766-5.768-2.168-1.567-4.135-3.088-6.01-4.649l-.733-.605c-.5-.42-.956-.8-1.408-1.194-2.666-2.329-5.192-4.716-7.508-7.1-.725-.739-1.41-1.465-2.1-2.22-1.783-1.931-3.354-3.745-4.8-5.544-1.055-1.271-2.119-2.634-3.254-4.168-.974-1.306-1.96-2.687-3.013-4.224-1.139-1.689-2.231-3.4-3.343-5.225-.785-1.3-1.557-2.637-2.293-3.97-1-1.808-1.967-3.667-2.865-5.528-.713-1.44-1.417-2.968-2.152-4.673-.778-1.778-1.438-3.4-2.017-4.948-.862-2.257-1.66-4.561-2.373-6.847-.3-.945-.6-1.957-.9-3.01-.983-3.5-1.759-6.786-2.372-10.047l-.042-.221-.007-.032c-.139-.743-.283-1.512-.4-2.285l-.014-.1c-.422-2.438-.769-5.006-1.034-7.631-.363-3.534-.56-7.077-.588-10.535-.026-.519-.026-1.052-.026-1.568v-.047c0-3.01.11-6.034.327-8.989l.092-1.254-1.23.254c-2.2.453-4.217.92-6.181,1.423-1.509.374-3.017.779-4.482,1.2-1.808.508-3.671,1.073-5.7,1.73-1.75.558-3.352,1.106-4.894,1.671-1.614.575-3.347,1.232-5.3,2.006a7.827,7.827,0,0,0-2.339,2.092,15.366,15.366,0,0,0-1.369,1.941,12.858,12.858,0,0,0-1.1,2.331,13.633,13.633,0,0,0-.666,4.185,31.563,31.563,0,0,0,.161,3.492l0,.043c.01.1.019.2.026.294.057.811.128,1.588.207,2.313.251,2.8.618,5.74,1.093,8.73.26,1.726.522,3.25.8,4.656.324,1.828.732,3.818,1.248,6.086.327,1.4.769,3.247,1.283,5.1.415,1.621.91,3.363,1.511,5.323.531,1.716,1.089,3.418,1.659,5.057.605,1.772,1.207,3.419,1.838,5.033.577,1.527,1.225,3.121,1.98,4.872.143.339.284.663.425.987l11.08-5.422c-.3-.712-.608-1.448-.905-2.187-.548-1.3-1.053-2.571-1.5-3.789-.768-2.011-1.531-4.209-2.267-6.534-.331-.989-.659-2.047-1.036-3.334-.828-2.834-1.516-5.475-2.1-8.073-.166-.707-.314-1.395-.451-2.1-.735-3.369-1.346-6.891-1.815-10.468l-.027-.2-.012-.085c-.07-.512-.135-.994-.194-1.5-.326-2.725-.574-5.506-.739-8.271,1.205-.466,2.436-.911,3.759-1.36,1.548-.554,3.1-1.075,4.618-1.548.128,3.11.383,6.31.758,9.506.108,1.06.258,2.211.471,3.62.327,2.379.723,4.694,1.176,6.882.557,2.881,1.225,5.732,1.987,8.475.146.623.316,1.217.479,1.789.951,3.363,2.055,6.719,3.283,9.974l.321.854h.007c1.123,2.974,2.38,5.933,3.736,8.793a9.047,9.047,0,0,0,.446.938c1.333,2.831,2.836,5.71,4.466,8.558l.007.013c.208.357.42.726.621,1.039,1.554,2.69,3.287,5.425,5.155,8.126.2.311.387.58.567.824,2.06,2.947,4.181,5.737,6.3,8.3l.088.1c2.22,2.706,4.567,5.326,6.977,7.789.43.458.877.92,1.327,1.37,2.245,2.23,4.31,4.162,6.31,5.907,1.862,1.646,3.636,3.125,5.42,4.522.888.716,1.815,1.429,2.832,2.181,2.846,2.122,5.842,4.166,8.9,6.079l.616.383,0,0,.532-.491c1.354-1.253,2.636-2.484,3.811-3.659,1.466-1.482,2.719-2.783,3.828-3.98l.8-.862Z" transform="translate(-89.94 -48.651)" fill="#4cc21d"/>
        <path id="Path_265267" data-name="Path 265267" d="M103.561,108.208c-.306-.541-.605-1.08-.892-1.6.161.291.331.594.5.9.128.232.26.469.389.7Z" transform="translate(-84.406 -23.456)" fill="#4cc21d"/>
      </g>
      <g id="Group_51118" data-name="Group 51118" transform="translate(20.154 95.112)">
        <g id="Group_51118-2" data-name="Group 51118-2">
          <path id="Path_265252" data-name="Path 265252" d="M116.063,97.931l5.522,10.085L94.763,122.7l-5.522-10.083,15.94-8.727" transform="translate(-89.241 -97.931)" fill="#4cc21d"/>
          <path id="Path_265268" data-name="Path 265268" d="M100.631,103.671l10.481-5.74" transform="translate(-84.289 -97.931)" fill="#4cc21d"/>
        </g>
      </g>
      <path id="Path_265251" data-name="Path 265251" d="M128.991,140.861l15.481-8.97,8.418,5.735-8.923,6.593a10.406,10.406,0,0,1-6.572,1.393C133.378,145.22,128.991,140.861,128.991,140.861Z" transform="translate(-51.807 11.944)" fill="#4cc21d"/>
    </g>
    <g id="Group_58746" data-name="Group 58746" transform="translate(16.737 -5)">
      <line id="Line_105" data-name="Line 105" x2="91.183" transform="translate(24.585 209.467)" fill="none" stroke="#fff" stroke-width="2"/>
    </g>
  </g>
</svg>
