<svg xmlns="http://www.w3.org/2000/svg" xmlns:xlink="http://www.w3.org/1999/xlink" width="152" height="152" viewBox="0 0 152 152">
  <defs>
    <clipPath id="clip-path">
      <rect id="Rectangle_1582" data-name="Rectangle 1582" width="113.229" height="103.81" transform="translate(544.527)" fill="#fff" stroke="#707070" stroke-width="1"/>
    </clipPath>
  </defs>
  <g id="Group_58794" data-name="Group 58794" transform="translate(-230 -4158)">
    <rect id="Rectangle_5005" data-name="Rectangle 5005" width="152" height="152" transform="translate(230 4158)" fill="#fff"/>
    <g id="Omni_digital" data-name="Omni digital" transform="translate(-294.9 4181.859)" clip-path="url(#clip-path)">
      <g id="omni" transform="translate(554.025 0.726)">
        <rect id="Rectangle_138" data-name="Rectangle 138" width="94.753" height="79.092" transform="translate(0 0)" fill="#0063b0"/>
        <g id="Group_571" data-name="Group 571" transform="translate(20.603 5.765)">
          <path id="Path_1304" data-name="Path 1304" d="M298.423,361.976l-10.031,5.771c.194.364.4.72.625,1.065l11.052-6.357a1.912,1.912,0,0,0,3.139-1.806c10.534-6.061,9.054-5.209,10.333-5.944q-.282-.552-.608-1.076l-10.35,5.954a1.912,1.912,0,0,0-3.127,1.8l-.326.187v.407Z" transform="translate(-264.362 -327.208)" fill="none"/>
          <path id="Path_1305" data-name="Path 1305" d="M330.4,346.148a1.91,1.91,0,1,0-.626-1.065l-4.493,2.584v1.425Z" transform="translate(-290.516 -319.525)" fill="none"/>
          <path id="Path_1306" data-name="Path 1306" d="M324.767,331.748v3.093l6.075-3.5c-.423-.134-.854-.252-1.293-.347-.143-.031-.287-.059-.432-.086l-4.35,2.5v-2.738h-.212c.07,0,.141,0,.211.007Z" transform="translate(-290 -310.936)" fill="none"/>
          <path id="Path_1307" data-name="Path 1307" d="M228.786,283.971a1.909,1.909,0,0,0,1.876-2.251c10.941-6.293,8.919-5.129,11.631-6.691a14.051,14.051,0,0,0-1.751-.416c-2.02,1.163-.348.2-10.483,6.03a1.907,1.907,0,1,0-1.273,3.327Z" transform="translate(-220.748 -271.191)" fill="none"/>
          <path id="Path_1308" data-name="Path 1308" d="M331.562,396.244a1.914,1.914,0,0,0-1.869,2.307l-11.2,6.441a14.125,14.125,0,0,0,1.826.375l10.005-5.756a1.909,1.909,0,1,0,1.235-3.366Z" transform="translate(-285.703 -357.419)" fill="none"/>
          <path id="Path_1309" data-name="Path 1309" d="M337.99,331.127l.152.023-.129-.02Z" transform="translate(-299.523 -311.255)" fill="none"/>
          <path id="Path_1310" data-name="Path 1310" d="M330.567,371.054l-16.859,9.7a1.91,1.91,0,1,0,.612,1.073c15.94-9.17,13.231-7.611,16.411-9.439Q330.68,371.71,330.567,371.054Z" transform="translate(-280.056 -339.561)" fill="none"/>
          <path id="Path_1311" data-name="Path 1311" d="M237.643,287.548a1.909,1.909,0,1,0-3.78.378l-16.8,9.667q.057.671.175,1.322l17.254-9.925A1.909,1.909,0,0,0,237.643,287.548Z" transform="translate(-213.791 -279.007)" fill="none"/>
          <path id="Path_1312" data-name="Path 1312" d="M239.947,297.591l-.055.031h.707v-.407h0v-4.795h0V291h0V282.6c-.07,0-.141,0-.211-.007h-3v11.838h-4.62a3.947,3.947,0,0,1-1.39,0h-6.416v-2.422l-3.883,2.234c-.291-.043-.578-.094-.862-.156-.313-.068-.621-.15-.926-.239l5.671-3.262V286.13l-4.05,2.33a1.908,1.908,0,1,1-.612-1.072l4.663-2.682v-3.335a1.9,1.9,0,0,1-2.61.08l-11.092,6.38q-.331-.519-.617-1.068l11.1-6.384a1.91,1.91,0,0,1,3.123-1.8l10.312-5.932q.331.52.616,1.069c-1.227.7.123-.072-9.784,5.628h8.269c1.154-.664,2.854-1.668,3.621-2.109h.005l0-.008,2.174-1.255A17.386,17.386,0,1,0,222.359,297.6q.208.01.416.016l.226,0h8.558l.054-.031Zm-24.8-25.283c10.135-5.829,8.463-4.868,10.483-6.03a14.05,14.05,0,0,1,1.752.416l-11.631,6.691a1.908,1.908,0,1,1-.6-1.076ZM209.1,281.44l16.8-9.667a1.909,1.909,0,1,1,.625,1.064l-17.254,9.925Q209.156,282.11,209.1,281.44Z" transform="translate(-205.831 -262.854)" fill="#fff"/>
          <path id="Path_1313" data-name="Path 1313" d="M337.99,331.127l.022,0,.129.02Z" transform="translate(-299.523 -311.255)" fill="#8abb2a"/>
          <path id="Path_1314" data-name="Path 1314" d="M301.358,324.727a17.257,17.257,0,0,0-9.3-4.836q-.531-.092-1.069-.15c-.353-.039-.709-.067-1.067-.084q-.426-.021-.857-.021H271.682v15.022q.434.027.877.028H274.9V322.849h3.56a4.03,4.03,0,0,1,.987,0h7.841v2.738l4.35-2.5c.145.027.289.054.432.086.439.095.87.212,1.293.347l-6.075,3.5v4.237h0l4.493-2.584a1.911,1.911,0,1,1,.626,1.065l-5.119,2.944h0v4.795h0l.326-.187a1.912,1.912,0,0,1,3.127-1.8l10.35-5.954q.327.523.608,1.075l-10.333,5.944a1.912,1.912,0,0,1-3.139,1.806l-11.052,6.357c-.223-.345-.431-.7-.625-1.065l10.031-5.771.055-.031H278.3l-.054.031-3.42,1.966,0,0-2.6,1.5a17.387,17.387,0,1,0,29.135-16.621ZM297.139,345.3l-10,5.756a14.056,14.056,0,0,1-1.826-.375l11.2-6.441a1.91,1.91,0,1,1,.634,1.06Zm-10.359.072a1.91,1.91,0,1,1-.612-1.073l16.859-9.7q.114.656.165,1.331C300.011,337.76,302.72,336.2,286.779,345.372Z" transform="translate(-252.515 -303.108)" fill="#edeeef"/>
        </g>
        <g id="Group_572" data-name="Group 572" transform="translate(10.758 59.073)">
          <path id="Path_1315" data-name="Path 1315" d="M172.008,456.3a9.98,9.98,0,1,1,9.962,9.938A10.017,10.017,0,0,1,172.008,456.3Zm16.055-.024a6.082,6.082,0,1,0-6.094,6.058A6.105,6.105,0,0,0,188.063,456.274Z" transform="translate(-172.008 -446.205)" fill="#fff"/>
          <path id="Path_1316" data-name="Path 1316" d="M267.961,446v19.661H264.1v-8.355l-5.522,8.034h-.024l-5.534-8.034v8.355h-3.856V446h.214l9.188,12.675L267.746,446Z" transform="translate(-226.71 -446.002)" fill="#fff"/>
          <path id="Path_1317" data-name="Path 1317" d="M340.607,446.72v19.59h-.179l-11.39-11.081v10.747h-3.856V446.411h.19l11.366,11.057V446.72Z" transform="translate(-280.599 -446.292)" fill="#fff"/>
          <path id="Path_1318" data-name="Path 1318" d="M389.626,447.638h3.856v19.185h-3.856Z" transform="translate(-326.285 -447.162)" fill="#fff"/>
        </g>
        <g id="Group_573" data-name="Group 573" transform="translate(0 83.264)">
          <path id="Path_1319" data-name="Path 1319" d="M150.44,540.24c0,5.885-3.742,9.463-9.874,9.463h-5.52v-18.96l5.52-.012C146.7,530.719,150.44,534.321,150.44,540.24Zm-3.848-.012c0-3.554-2.283-5.72-6.038-5.72h-1.707V545.9h1.742C144.32,545.9,146.591,543.759,146.591,540.229Z" transform="translate(-135.046 -530.26)" fill="#0063b0"/>
          <path id="Path_1320" data-name="Path 1320" d="M196.426,530.731h3.813V549.7h-3.813Z" transform="translate(-178.561 -530.26)" fill="#0063b0"/>
          <path id="Path_1321" data-name="Path 1321" d="M237.06,539.707c0,5.955-4.107,9.427-9.05,9.427a9.869,9.869,0,1,1-.141-19.737,10.455,10.455,0,0,1,6.944,2.966l-2.118,3.166a7.116,7.116,0,0,0-4.872-2.272,6.023,6.023,0,1,0,.353,12.04c2.707,0,4.649-1.389,4.778-3.672h-4.908v-3.519h8.921A15.132,15.132,0,0,1,237.06,539.707Z" transform="translate(-193.868 -529.315)" fill="#0063b0"/>
          <path id="Path_1322" data-name="Path 1322" d="M291.932,530.731h3.813V549.7h-3.813Z" transform="translate(-246.268 -530.26)" fill="#0063b0"/>
          <path id="Path_1323" data-name="Path 1323" d="M325.55,534.509h-4.661V549.7h-3.825V534.509h-4.672v-3.778H325.55Z" transform="translate(-260.773 -530.26)" fill="#0063b0"/>
          <path id="Path_1324" data-name="Path 1324" d="M364.981,545.908H357.39l-1.212,2.648h-4.119l9.062-19.442h.118l9.074,19.442h-4.131ZM363.5,542.66l-2.307-5.072-2.319,5.072Z" transform="translate(-288.894 -529.114)" fill="#0063b0"/>
          <path id="Path_1325" data-name="Path 1325" d="M432.722,545.913v3.79H421.283V530.731H425.1v15.182Z" transform="translate(-337.97 -530.26)" fill="#0063b0"/>
        </g>
      </g>
    </g>
  </g>
</svg>
