<svg xmlns="http://www.w3.org/2000/svg" width="123.902" height="154.789" viewBox="0 0 123.902 154.789">
  <g id="Royality" transform="translate(-8 -84.017)">
    <path id="Path_312" data-name="Path 312" d="M43.026,109.728,38.147,99.347l-4.879,10.381a3.859,3.859,0,0,1-2.919,2.18l-11.275,1.723,8.29,8.5a3.863,3.863,0,0,1,1.049,3.326L26.5,137.2l9.773-5.4a3.87,3.87,0,0,1,3.748,0l9.773,5.4-1.913-11.744a3.851,3.851,0,0,1,1.049-3.326l8.29-8.5-11.275-1.723A3.859,3.859,0,0,1,43.026,109.728Z" transform="translate(31.804 44.027)"/>
    <path id="Path_313" data-name="Path 313" d="M128.03,107.16c-23.882,0-44.949-8.305-54.978-21.679a4.018,4.018,0,0,0-6.2,0c-10.028,13.374-31.1,21.679-54.978,21.679A3.871,3.871,0,0,0,8,111.032v50.335c0,44.163,31.452,68.878,60.886,77.292a3.926,3.926,0,0,0,2.13,0c29.435-8.414,60.886-33.128,60.886-77.292V111.032A3.871,3.871,0,0,0,128.03,107.16ZM99.823,157.673,87.638,170.164l2.881,17.683a3.869,3.869,0,0,1-5.692,4.011l-14.876-8.224-14.876,8.224a3.871,3.871,0,0,1-5.7-4.011l2.885-17.683L40.079,157.673a3.865,3.865,0,0,1,2.188-6.528l16.68-2.552,7.5-15.972c1.27-2.726,5.73-2.726,7,0l7.5,15.972,16.68,2.552a3.865,3.865,0,0,1,2.188,6.528Z" transform="translate(0 0)" fill="#919191"/>
  </g>
</svg>
